STARTFONT 2.3
FONT -FontForge-Zen Tokyo Zoo-Book-R-Normal--28-280-72-72-P-131-ISO10646-1
SIZE 28 72 72  2
FONTBOUNDINGBOX 37 38 -3 -7
COMMENT "Generated by fontforge, http://fontforge.sourceforge.net"
COMMENT "Copyright 2021 The Zen Tokyo Zoo Project Authors (https://github.com/googlefonts/zen-tokyo-zoo)"
STARTPROPERTIES 40
FOUNDRY "FontForge"
FAMILY_NAME "Zen Tokyo Zoo"
WEIGHT_NAME "Book"
SLANT "R"
SETWIDTH_NAME "Normal"
ADD_STYLE_NAME ""
PIXEL_SIZE 28
POINT_SIZE 280
RESOLUTION_X 72
RESOLUTION_Y 72
SPACING "P"
AVERAGE_WIDTH 131
CHARSET_REGISTRY "ISO10646"
CHARSET_ENCODING "1"
FONTNAME_REGISTRY ""
CHARSET_COLLECTIONS "ISO10646-1"
BITS_PER_PIXEL 2
FONT_NAME "ZenTokyoZoo-Regular"
FACE_NAME "Zen Tokyo Zoo Regular"
COPYRIGHT "Copyright 2021 The Zen Tokyo Zoo Project Authors (https://github.com/googlefonts/zen-tokyo-zoo)"
FONT_VERSION "1.002; ttfautohint (v1.8.3)"
FONT_ASCENT 22
FONT_DESCENT 6
UNDERLINE_POSITION -4
UNDERLINE_THICKNESS 1
X_HEIGHT 11
CAP_HEIGHT 22
RAW_ASCENT 800
RAW_DESCENT 200
NORM_SPACE 8
RELATIVE_WEIGHT 40
RELATIVE_SETWIDTH 50
SUPERSCRIPT_X 0
SUPERSCRIPT_Y 9
SUPERSCRIPT_SIZE 16
SUBSCRIPT_X 0
SUBSCRIPT_Y 2
SUBSCRIPT_SIZE 16
AVG_LOWERCASE_WIDTH 116
AVG_UPPERCASE_WIDTH 211
ENDPROPERTIES
CHARS 338
STARTCHAR CR
ENCODING 13
SWIDTH 600 0
DWIDTH 17 0
BBX 1 1 0 0
BITMAP
00
ENDCHAR
STARTCHAR space
ENCODING 32
SWIDTH 280 0
DWIDTH 8 0
BBX 1 1 0 0
BITMAP
00
ENDCHAR
STARTCHAR exclam
ENCODING 33
SWIDTH 196 0
DWIDTH 5 0
BBX 3 12 1 0
BITMAP
98
98
98
98
98
98
98
98
98
00
98
98
ENDCHAR
STARTCHAR quotedbl
ENCODING 34
SWIDTH 302 0
DWIDTH 8 0
BBX 8 4 0 8
BITMAP
6532
6532
6532
6532
ENDCHAR
STARTCHAR numbersign
ENCODING 35
SWIDTH 513 0
DWIDTH 14 0
BBX 12 12 1 0
BITMAP
022094
022000
2627FF
026000
265BFF
000320
BFF668
000660
BFE65C
000590
098980
1948C0
ENDCHAR
STARTCHAR dollar
ENCODING 36
SWIDTH 379 0
DWIDTH 11 0
BBX 9 15 1 -1
BITMAP
004000
008000
189900
A08200
C89580
984000
879000
646900
0B9240
006980
448C80
C49540
648600
189400
008000
ENDCHAR
STARTCHAR percent
ENCODING 37
SWIDTH 493 0
DWIDTH 14 0
BBX 13 12 0 0
BITMAP
0B902200
27709900
69A59800
67662000
24699000
0B998000
00226E00
00998180
01996D80
02216D80
05508180
08806E00
ENDCHAR
STARTCHAR ampersand
ENCODING 38
SWIDTH 487 0
DWIDTH 14 0
BBX 12 12 1 0
BITMAP
01BE00
06BA80
09C9C0
0988C0
056180
022500
258C66
619609
992248
5798C0
341A60
1BE264
ENDCHAR
STARTCHAR quotesingle
ENCODING 39
SWIDTH 146 0
DWIDTH 4 0
BBX 4 4 0 8
BITMAP
65
65
65
65
ENDCHAR
STARTCHAR parenleft
ENCODING 40
SWIDTH 210 0
DWIDTH 6 0
BBX 4 14 1 -1
BITMAP
11
22
65
98
88
98
98
98
98
C8
8C
59
26
26
ENDCHAR
STARTCHAR parenright
ENCODING 41
SWIDTH 210 0
DWIDTH 6 0
BBX 4 14 1 -1
BITMAP
54
88
99
65
22
23
23
22
23
22
26
59
98
98
ENDCHAR
STARTCHAR asterisk
ENCODING 42
SWIDTH 358 0
DWIDTH 10 0
BBX 8 7 1 5
BITMAP
0280
1284
1414
6409
0410
1558
0920
ENDCHAR
STARTCHAR plus
ENCODING 43
SWIDTH 394 0
DWIDTH 11 0
BBX 9 9 1 2
BITMAP
023000
023000
023000
B23380
023000
B23380
023000
023000
023000
ENDCHAR
STARTCHAR comma
ENCODING 44
SWIDTH 216 0
DWIDTH 6 0
BBX 4 4 1 -1
BITMAP
11
26
59
88
ENDCHAR
STARTCHAR hyphen
ENCODING 45
SWIDTH 326 0
DWIDTH 9 0
BBX 7 3 1 4
BITMAP
BFF8
0000
BFF8
ENDCHAR
STARTCHAR period
ENCODING 46
SWIDTH 176 0
DWIDTH 5 0
BBX 3 2 1 0
BITMAP
88
88
ENDCHAR
STARTCHAR slash
ENCODING 47
SWIDTH 298 0
DWIDTH 8 0
BBX 7 12 1 0
BITMAP
0264
0230
0260
0590
0880
0880
1540
2200
2200
6500
9900
CC00
ENDCHAR
STARTCHAR zero
ENCODING 48
SWIDTH 306 0
DWIDTH 9 0
BBX 7 12 1 0
BITMAP
2F90
ABA0
D898
9888
9888
9888
9888
9888
9888
CB58
A020
2F90
ENDCHAR
STARTCHAR one
ENCODING 49
SWIDTH 306 0
DWIDTH 9 0
BBX 7 12 1 0
BITMAP
B664
0264
B664
0264
0264
0264
0264
0264
0264
0264
0264
0264
ENDCHAR
STARTCHAR two
ENCODING 50
SWIDTH 299 0
DWIDTH 8 0
BBX 7 12 1 0
BITMAP
1F90
6070
8B54
8594
0220
09A0
2580
9600
0000
FFF4
0000
FFF4
ENDCHAR
STARTCHAR three
ENCODING 51
SWIDTH 324 0
DWIDTH 9 0
BBX 7 12 1 0
BITMAP
1AA0
A018
CB88
4448
0190
0024
000C
0188
4488
CB8C
A024
1BD0
ENDCHAR
STARTCHAR four
ENCODING 52
SWIDTH 339 0
DWIDTH 9 0
BBX 8 12 1 0
BITMAP
0324
0560
0C90
1580
3240
6600
0066
FE66
0066
FE66
0066
0066
ENDCHAR
STARTCHAR five
ENCODING 53
SWIDTH 363 0
DWIDTH 10 0
BBX 7 12 2 0
BITMAP
BFF4
0000
BFF4
0000
C800
C840
C8A0
C858
44C8
CB58
A024
1F90
ENDCHAR
STARTCHAR six
ENCODING 54
SWIDTH 306 0
DWIDTH 9 0
BBX 7 12 1 0
BITMAP
2F90
AB64
D888
9800
9800
9A90
9870
9A98
9888
CB58
A060
2F90
ENDCHAR
STARTCHAR seven
ENCODING 55
SWIDTH 298 0
DWIDTH 8 0
BBX 7 12 1 0
BITMAP
FFF4
0000
FFF4
0000
0230
0220
0650
0990
08C0
0980
1940
2640
ENDCHAR
STARTCHAR eight
ENCODING 56
SWIDTH 306 0
DWIDTH 9 0
BBX 7 12 1 0
BITMAP
2F90
AB64
D898
8858
C714
61D0
5970
C258
9888
CB58
A070
2F90
ENDCHAR
STARTCHAR nine
ENCODING 57
SWIDTH 306 0
DWIDTH 9 0
BBX 7 12 1 0
BITMAP
2F90
AB60
D898
9888
C888
A088
1D88
0088
4488
CB58
A020
2F90
ENDCHAR
STARTCHAR colon
ENCODING 58
SWIDTH 176 0
DWIDTH 5 0
BBX 3 7 1 0
BITMAP
88
88
00
00
00
88
88
ENDCHAR
STARTCHAR semicolon
ENCODING 59
SWIDTH 217 0
DWIDTH 6 0
BBX 4 8 1 -2
BITMAP
23
23
00
00
22
65
99
44
ENDCHAR
STARTCHAR less
ENCODING 60
SWIDTH 450 0
DWIDTH 13 0
BBX 11 12 1 0
BITMAP
000004
000074
000680
002964
009280
0A4900
65A000
1A1D00
01D290
002924
000280
000064
ENDCHAR
STARTCHAR equal
ENCODING 61
SWIDTH 344 0
DWIDTH 10 0
BBX 8 8 1 1
BITMAP
BFFD
0000
BFFD
0000
0000
BFFD
0000
BFFD
ENDCHAR
STARTCHAR greater
ENCODING 62
SWIDTH 450 0
DWIDTH 13 0
BBX 10 12 1 0
BITMAP
800000
740000
4A4000
64A400
0A1A00
01A1D0
001D10
074240
687400
968000
290000
900000
ENDCHAR
STARTCHAR question
ENCODING 63
SWIDTH 346 0
DWIDTH 10 0
BBX 8 12 1 0
BITMAP
1BE0
2418
5788
5499
0098
0258
0660
0590
0990
0000
0580
0990
ENDCHAR
STARTCHAR at
ENCODING 64
SWIDTH 490 0
DWIDTH 14 0
BBX 12 12 1 0
BITMAP
02BE40
1ABEA4
2A4198
98B9A5
A2BA96
A2868A
A28696
A2BAA9
98B9B8
260240
1AAA40
02BA40
ENDCHAR
STARTCHAR A
ENCODING 65
SWIDTH 798 0
DWIDTH 22 0
BBX 22 23 0 0
BITMAP
000059900000
00008CC00000
000199940000
000266480000
000333590000
000666660000
000999330000
000CCD664000
001998998000
00266088C000
002220559000
006550226000
008880262000
008880196400
01566FDC8800
022200099800
02667FE66500
059900033200
08CCFFF66640
199800019980
26640000CCC0
333000009990
666000006660
ENDCHAR
STARTCHAR B
ENCODING 66
SWIDTH 784 0
DWIDTH 22 0
BBX 20 23 1 0
BITMAP
98CFFFF900
98CFFFEA80
98C0000660
98CFFFE5A4
98C0001C98
98C000099C
98C0000998
98C0001C8C
98CFFFE588
98C0000624
98CFFFE860
98C0000689
98CFFFE916
98C0000132
98C0000262
98C0000166
98C0000262
98C0000632
98CFFFE895
98C000068C
98CFFFF924
98C00001D0
98CFFFF900
ENDCHAR
STARTCHAR C
ENCODING 67
SWIDTH 776 0
DWIDTH 22 0
BBX 20 23 1 0
BITMAP
0001AFF900
001EAFEAA4
00AA40069A
03746FE460
09D7901B54
2658000080
3660000000
5890000000
8880000000
D980000000
9940000000
9940000000
9980000000
C880000000
8890000000
5660000000
3258000080
24D7901B54
09746FE460
034A40068A
00A06FE428
001E400690
0001AFE900
ENDCHAR
STARTCHAR D
ENCODING 68
SWIDTH 806 0
DWIDTH 23 0
BBX 21 23 1 0
BITMAP
98CFFE500000
98CFFEA90000
98C001BA4000
98CFFA4AA000
98C001A2A400
98C000189800
98C000063600
98C000026700
98C000019A40
98C00000C980
98C00000CD80
98C00000CC80
98C00000C980
98C000019980
98C000026640
98C000063300
98C0001C9600
98C001A28800
98CFFA4A2400
98C001B4A000
98CFFE468000
98C000690000
98CFFE900000
ENDCHAR
STARTCHAR E
ENCODING 69
SWIDTH 677 0
DWIDTH 19 0
BBX 17 23 1 0
BITMAP
98CFFFFFC0
98CFFFFFC0
98C0000000
98CFFFFFC0
98C0000000
98C0000000
98C0000000
98C0000000
98C0000000
98CFFFFD00
98C0000000
98CFFFFD00
98C0000000
98CFFFFD00
98C0000000
98C0000000
98C0000000
98C0000000
98CFFFFFC0
98C0000000
98CFFFFFC0
98C0000000
98CFFFFFC0
ENDCHAR
STARTCHAR F
ENCODING 70
SWIDTH 677 0
DWIDTH 19 0
BBX 17 23 1 0
BITMAP
98CFFFFFC0
98CFFFFFC0
98C0000000
98CFFFFFC0
98C0000000
98C0000000
98C0000000
98C0000000
98C0000000
98CFFFFD00
98C0000000
98CFFFFD00
98C0000000
98CFFFFD00
98C0000000
98C0000000
98C0000000
98C0000000
98C0000000
98C0000000
98C0000000
98C0000000
98C0000000
ENDCHAR
STARTCHAR G
ENCODING 71
SWIDTH 872 0
DWIDTH 24 0
BBX 23 23 1 0
BITMAP
0001AFF90000
001EAFEAA000
00AA40069D00
03746FE46640
09D7901B5C90
265800009600
366000003000
589000000000
888000000000
D98000000000
994001FFFFF8
994000000000
998001FFFFF8
C88000000000
889001FFFFF8
566000001000
32580000A730
24D790074960
09746FE47580
034A40068600
00A06FE92800
001E4006D000
0001AFE90000
ENDCHAR
STARTCHAR H
ENCODING 72
SWIDTH 781 0
DWIDTH 22 0
BBX 20 23 1 0
BITMAP
98C0000265
98C0000265
98C0000265
98C0000265
98C0000265
98C0000265
98C0000265
98C0000265
98C0000265
98CFFFE265
98C0000265
98CFFFE265
98C0000265
98CFFFE265
98C0000265
98C0000265
98C0000265
98C0000265
98C0000265
98C0000265
98C0000265
98C0000265
98C0000265
ENDCHAR
STARTCHAR I
ENCODING 73
SWIDTH 262 0
DWIDTH 7 0
BBX 5 23 1 0
BITMAP
98C0
98C0
98C0
98C0
98C0
98C0
98C0
98C0
98C0
98C0
98C0
98C0
98C0
98C0
98C0
98C0
98C0
98C0
98C0
98C0
98C0
98C0
98C0
ENDCHAR
STARTCHAR J
ENCODING 74
SWIDTH 674 0
DWIDTH 19 0
BBX 18 23 0 0
BITMAP
0000002650
0000002650
0000002650
0000002650
0000002650
0000002650
0000002650
0000002650
0000002650
0000002650
0000002650
0000002650
0000002650
1440002650
5590002650
6590006550
2260009990
32690288C0
19C6F92580
097401D200
0346FA1D00
00A401A000
001BFE4000
ENDCHAR
STARTCHAR K
ENCODING 75
SWIDTH 739 0
DWIDTH 21 0
BBX 19 23 1 0
BITMAP
98C0002658
98C0009630
98C0018C90
98C0022580
98C0096200
98C018C900
98C0226800
98C0566000
98C1488000
98C0C24000
98C9620000
98D2680000
98D8C90000
98C9630000
98C2698000
98C1896000
98C0632400
98C0258900
98C0096600
98C0032580
98C0018C90
98C000A624
98C000258C
ENDCHAR
STARTCHAR L
ENCODING 76
SWIDTH 604 0
DWIDTH 17 0
BBX 16 23 1 0
BITMAP
98C00000
98C00000
98C00000
98C00000
98C00000
98C00000
98C00000
98C00000
98C00000
98C00000
98C00000
98C00000
98C00000
98C00000
98C00000
98C00000
98C00000
98C00000
98CFFFFD
98C00000
98CFFFFD
98C00000
98CFFFFD
ENDCHAR
STARTCHAR M
ENCODING 77
SWIDTH 909 0
DWIDTH 25 0
BBX 23 23 1 0
BITMAP
98C000000598
98C000000598
98C400005598
98C800009598
98C600024598
98C640061598
98C8900C9598
98C660258598
98C258631598
98C8C9495598
98C963188598
98C325824598
98C18C960598
98C096300598
98C026500598
98C018800598
98C006000598
98C002000598
98C000000598
98C000000598
98C000000598
98C000000598
98C000000598
ENDCHAR
STARTCHAR N
ENCODING 78
SWIDTH 796 0
DWIDTH 22 0
BBX 20 23 1 0
BITMAP
98C0000263
98C0000263
98C8000263
98C9000263
98C3000263
98C5800263
98C8900263
98C6300263
98C6580263
98C8990263
98C6624263
98C2598263
98C0C9A263
98C0632663
98C0258663
98C00C9263
98C0063263
98C0025663
98C0009263
98C0006263
98C0002663
98C0000263
98C0000263
ENDCHAR
STARTCHAR O
ENCODING 79
SWIDTH 894 0
DWIDTH 25 0
BBX 23 23 1 0
BITMAP
0001AFE90000
001EAFEAD000
00AA4006A800
03746FE47700
09D7901B5D80
265800009660
366000002660
589000001894
888000000888
D98000000998
994000000598
994000000598
998000000998
C88000000888
889000001888
566000002654
325800009620
24D7901B5C60
09746FE47580
034A40068700
00A06FE42800
001E4006D000
0001AFE90000
ENDCHAR
STARTCHAR P
ENCODING 80
SWIDTH 743 0
DWIDTH 21 0
BBX 19 23 1 0
BITMAP
98CFFFF900
98CFFFEA80
98C0000660
98CFFFE5A4
98C0001C98
98C000099C
98C0000998
98C0001C8C
98CFFFE588
98C0000624
98CFFFE860
98C0000680
98CFFFE900
98C0000000
98C0000000
98C0000000
98C0000000
98C0000000
98C0000000
98C0000000
98C0000000
98C0000000
98C0000000
ENDCHAR
STARTCHAR Q
ENCODING 81
SWIDTH 911 0
DWIDTH 26 0
BBX 24 23 1 0
BITMAP
0001AFE90000
001EAFEAD000
00AA4006A800
03746FE47740
09D7901B5DC0
265800009660
366000003664
589000001898
888000000C8C
D9800000099C
994000000598
994000000598
998000004998
C8800000A0CC
889000036898
56600015DA24
325800097680
24D790165CA0
09746FE49728
034A401A25C9
00A06FE40970
001E4006D250
0001AFE90080
ENDCHAR
STARTCHAR R
ENCODING 82
SWIDTH 745 0
DWIDTH 21 0
BBX 19 23 1 0
BITMAP
98CFFFF900
98CFFFEA80
98C0000660
98CFFFE5A4
98C0001C98
98C000099C
98C0000998
98C0001C8C
98CFFFE588
98C0000624
98CFFFE860
98C0000680
98CFFFE900
98C0000400
98C0089900
98C0066600
98C0033200
98C0015580
98C0008CC0
98C0009990
98C0006620
98C0002264
98C0001998
ENDCHAR
STARTCHAR S
ENCODING 83
SWIDTH 660 0
DWIDTH 18 0
BBX 17 23 1 0
BITMAP
006FF90000
07ABEAA000
1AD0069800
661BE46600
9CA4072600
C980019400
8980000000
CCA0000000
961A400000
21A5A90000
191A929000
02906E2800
001A419A00
0000692200
0000025940
000000C980
0540008980
C8A0065580
9A1BE86240
2290068600
182BE91800
069001A000
006FF90000
ENDCHAR
STARTCHAR T
ENCODING 84
SWIDTH 641 0
DWIDTH 18 0
BBX 18 23 0 0
BITMAP
BFFFFFFFE0
BFFFFFFFE0
0000000000
BFFFFFFFE0
0000000000
0006590000
0006590000
0006590000
0006590000
0006590000
0006590000
0006590000
0006590000
0006590000
0006590000
0006590000
0006590000
0006590000
0006590000
0006590000
0006590000
0006590000
0006590000
ENDCHAR
STARTCHAR U
ENCODING 85
SWIDTH 702 0
DWIDTH 20 0
BBX 18 23 1 0
BITMAP
98C0006590
98C0006590
98C0006590
98C0006590
98C0006590
98C0006590
98C0006590
98C0006590
98C0006590
98C0006590
98C0006590
98C0006590
98C0006590
98C0006590
98C0006590
9980009990
556000C880
2328065980
2586F97240
0C6402D600
060AF91800
01E401A000
001BFE4000
ENDCHAR
STARTCHAR V
ENCODING 86
SWIDTH 758 0
DWIDTH 21 0
BBX 21 23 0 0
BITMAP
666000019980
333000026640
266400033200
199800066500
0CCC00099800
0999000CC800
066600199400
033200266000
026640332000
019980665000
00CC80998000
009990C88000
006661994000
003322660000
002662220000
001994650000
000C88980000
000998880000
000665140000
000322200000
000266100000
000199400000
0000C8800000
ENDCHAR
STARTCHAR W
ENCODING 87
SWIDTH 972 0
DWIDTH 27 0
BBX 27 23 0 0
BITMAP
65900199400998
22600266401564
23200223002620
26600226003320
19640665002660
09980998405590
08C8088C809880
0998089880CC80
06591954509980
02662661615640
02322232326200
02622262623200
01565551946600
00998988985900
00CC88C88C8800
00988989988800
00559146651800
00266203262400
00332302232000
00262102661000
00156401994000
00099800C98000
000C880088C000
ENDCHAR
STARTCHAR X
ENCODING 88
SWIDTH 712 0
DWIDTH 20 0
BBX 18 23 1 0
BITMAP
9960009960
3324018CC0
2598026640
0C99066300
0663089900
0266599800
0188C22400
0099666000
0023248000
0025998000
000C890000
0006620000
0012264000
003188C000
0094996000
008C232000
0265659800
06230C8900
0899066600
1988022640
32240198C0
9660009960
8C80006330
ENDCHAR
STARTCHAR Y
ENCODING 89
SWIDTH 769 0
DWIDTH 22 0
BBX 21 23 0 0
BITMAP
6630000298C0
265800063240
088900099600
066300198C00
026580326400
018C90966000
00963188C000
002259264000
0018C9660000
000966090000
000326580000
000188C00000
000000000000
000058800000
000059800000
000059800000
000059800000
000059800000
000059800000
000059800000
000059800000
000059800000
000059800000
ENDCHAR
STARTCHAR Z
ENCODING 90
SWIDTH 708 0
DWIDTH 20 0
BBX 20 23 0 0
BITMAP
0BFFFF8C89
0BFFFE2658
0000006230
0BFFF48990
0000019980
0000023240
0000099600
0000198C00
0000226400
0000966000
00008C9000
0002658000
0006630000
000C990000
0025980000
0063200000
0099600000
0198800000
03266FFFD0
0966000000
18C9BFFFD0
2654000000
6623FFFFD0
ENDCHAR
STARTCHAR bracketleft
ENCODING 91
SWIDTH 320 0
DWIDTH 9 0
BBX 7 13 1 -1
BITMAP
98F4
98F4
9800
9800
9800
9800
9800
9800
9800
9800
98F4
9800
98F4
ENDCHAR
STARTCHAR backslash
ENCODING 92
SWIDTH 298 0
DWIDTH 8 0
BBX 7 12 1 0
BITMAP
CC00
9900
6500
2200
2200
1540
0880
0880
0590
0260
0230
0264
ENDCHAR
STARTCHAR bracketright
ENCODING 93
SWIDTH 320 0
DWIDTH 9 0
BBX 7 13 1 -1
BITMAP
BC98
BC98
0098
0098
0098
0098
0098
0098
0098
0098
BC98
0098
BC98
ENDCHAR
STARTCHAR asciicircum
ENCODING 94
SWIDTH 309 0
DWIDTH 9 0
BBX 6 5 1 7
BITMAP
0200
0900
1880
2590
6230
ENDCHAR
STARTCHAR underscore
ENCODING 95
SWIDTH 472 0
DWIDTH 13 0
BBX 11 3 1 0
BITMAP
BFFFF8
000000
BFFFF8
ENDCHAR
STARTCHAR grave
ENCODING 96
SWIDTH 195 0
DWIDTH 5 0
BBX 3 3 1 14
BITMAP
60
24
18
ENDCHAR
STARTCHAR a
ENCODING 97
SWIDTH 414 0
DWIDTH 12 0
BBX 11 12 0 0
BITMAP
008D00
009E00
016700
023640
027880
099C80
08C950
198620
26FF20
330254
67FFC8
990098
ENDCHAR
STARTCHAR b
ENCODING 98
SWIDTH 423 0
DWIDTH 12 0
BBX 10 12 1 0
BITMAP
8FFE40
8801C0
8FFD50
880260
880220
8FFFA0
880090
8FFE20
880230
8FFE20
880090
8FFF40
ENDCHAR
STARTCHAR c
ENCODING 99
SWIDTH 446 0
DWIDTH 12 0
BBX 11 12 1 0
BITMAP
01BE40
1900A0
21BE14
964180
CC0000
980000
980000
CC0000
964180
21BE14
1900A0
01BE40
ENDCHAR
STARTCHAR d
ENCODING 100
SWIDTH 450 0
DWIDTH 13 0
BBX 11 12 1 0
BITMAP
8FF900
880680
8FF860
880724
880198
8800C8
8800C8
880198
880724
8FF860
880680
8FF900
ENDCHAR
STARTCHAR e
ENCODING 101
SWIDTH 363 0
DWIDTH 10 0
BBX 9 12 1 0
BITMAP
8FFF80
880000
8FFF80
880000
880000
8FFE00
880000
8FFE00
880000
8FFF80
880000
8FFF80
ENDCHAR
STARTCHAR f
ENCODING 102
SWIDTH 365 0
DWIDTH 10 0
BBX 9 12 1 0
BITMAP
8FFF80
880000
8FFF80
880000
880000
8FFE00
880000
8FFE00
880000
880000
880000
880000
ENDCHAR
STARTCHAR g
ENCODING 103
SWIDTH 483 0
DWIDTH 14 0
BBX 12 12 1 0
BITMAP
01BE40
1900A0
21BE18
964180
CC0000
9807FE
980000
CC07FE
964199
21BE58
1900A0
01BE40
ENDCHAR
STARTCHAR h
ENCODING 104
SWIDTH 428 0
DWIDTH 12 0
BBX 10 12 1 0
BITMAP
880220
880220
880220
880220
880220
8FFF20
880220
8FFF20
880220
880220
880220
880220
ENDCHAR
STARTCHAR i
ENCODING 105
SWIDTH 176 0
DWIDTH 5 0
BBX 3 12 1 0
BITMAP
88
88
88
88
88
88
88
88
88
88
88
88
ENDCHAR
STARTCHAR j
ENCODING 106
SWIDTH 390 0
DWIDTH 11 0
BBX 9 12 1 0
BITMAP
000C80
000C80
000C80
000C80
000C80
000C80
000C80
940C80
CC1980
96E240
340A00
0BE400
ENDCHAR
STARTCHAR k
ENCODING 107
SWIDTH 381 0
DWIDTH 11 0
BBX 9 12 1 0
BITMAP
881980
883240
886600
88C800
895800
8A6000
8CE000
8E3000
8A5800
88CA00
886240
8818C0
ENDCHAR
STARTCHAR l
ENCODING 108
SWIDTH 330 0
DWIDTH 9 0
BBX 8 12 1 0
BITMAP
8800
8800
8800
8800
8800
8800
8800
8800
8800
8FFE
8800
8FFE
ENDCHAR
STARTCHAR m
ENCODING 109
SWIDTH 501 0
DWIDTH 14 0
BBX 12 12 1 0
BITMAP
8D0073
8F00B3
898263
8C9633
8E3CB3
8A9AA3
889623
883023
881423
880023
880023
880023
ENDCHAR
STARTCHAR n
ENCODING 110
SWIDTH 444 0
DWIDTH 12 0
BBX 11 12 1 0
BITMAP
8D0164
8E0164
8A4164
8CD164
8E6164
8A6564
888A64
886764
882664
880964
880764
880264
ENDCHAR
STARTCHAR o
ENCODING 111
SWIDTH 494 0
DWIDTH 14 0
BBX 12 12 1 0
BITMAP
01BE40
1900A0
21BE18
9641D9
CC0062
980022
980022
CC0062
9641D9
21BE18
1900A0
01BE40
ENDCHAR
STARTCHAR p
ENCODING 112
SWIDTH 412 0
DWIDTH 12 0
BBX 10 12 1 0
BITMAP
8FFE40
8801C0
8FFD50
880260
880260
8FFD50
8801C0
8FFE00
880000
880000
880000
880000
ENDCHAR
STARTCHAR q
ENCODING 113
SWIDTH 494 0
DWIDTH 14 0
BBX 12 12 1 0
BITMAP
01BE40
1900A0
21BE18
9641D5
CC0062
980022
980062
CC00A2
96462D
21BE8A
1901A1
01BE64
ENDCHAR
STARTCHAR r
ENCODING 114
SWIDTH 412 0
DWIDTH 12 0
BBX 10 12 1 0
BITMAP
8FFE40
8801C0
8FFD50
880260
880260
8FFD50
8801C0
8FFF00
883200
882640
880880
880990
ENDCHAR
STARTCHAR s
ENCODING 115
SWIDTH 379 0
DWIDTH 11 0
BBX 9 12 1 0
BITMAP
1BE400
640600
C6E240
981440
8A4000
65A800
0A9600
006980
440880
C6E580
640700
1BF800
ENDCHAR
STARTCHAR t
ENCODING 116
SWIDTH 349 0
DWIDTH 10 0
BBX 10 12 0 0
BITMAP
BFFFD0
000000
BFFFD0
016400
016400
016400
016400
016400
016400
016400
016400
016400
ENDCHAR
STARTCHAR u
ENCODING 117
SWIDTH 400 0
DWIDTH 11 0
BBX 9 12 1 0
BITMAP
880980
880980
880980
880980
880980
880980
880980
8C0980
8918C0
62E580
280600
07F800
ENDCHAR
STARTCHAR v
ENCODING 118
SWIDTH 394 0
DWIDTH 11 0
BBX 11 12 0 0
BITMAP
990198
660264
330330
264660
198590
0CC8C0
099980
067640
033200
026600
019D00
008C00
ENDCHAR
STARTCHAR w
ENCODING 119
SWIDTH 521 0
DWIDTH 15 0
BBX 15 12 0 0
BITMAP
990CC264
65098230
2615C260
23269650
26335990
19A628C0
09D73980
08DA6940
099D9640
05688B00
02748E00
03309900
ENDCHAR
STARTCHAR x
ENCODING 120
SWIDTH 369 0
DWIDTH 10 0
BBX 10 12 0 0
BITMAP
630960
264CC0
0CE540
097300
032900
025C00
02C800
06A600
08B240
199980
324C90
660660
ENDCHAR
STARTCHAR y
ENCODING 121
SWIDTH 422 0
DWIDTH 12 0
BBX 12 12 0 0
BITMAP
6300C9
268258
0C9630
0A6C90
026980
018F00
004100
005900
005900
005900
005900
005900
ENDCHAR
STARTCHAR z
ENCODING 122
SWIDTH 409 0
DWIDTH 11 0
BBX 10 12 1 0
BITMAP
BFFFD0
000000
BFFFD0
002580
009600
025C00
0A3400
189000
624000
BFFFD0
000000
BFFFD0
ENDCHAR
STARTCHAR braceleft
ENCODING 123
SWIDTH 443 0
DWIDTH 12 0
BBX 10 13 1 -1
BITMAP
0096F0
009AF0
009800
009800
009800
BD9800
009800
BD9800
009800
009800
009AF0
009800
0096F0
ENDCHAR
STARTCHAR bar
ENCODING 124
SWIDTH 196 0
DWIDTH 5 0
BBX 3 14 1 -1
BITMAP
44
98
98
98
98
98
98
98
98
98
98
98
98
98
ENDCHAR
STARTCHAR braceright
ENCODING 125
SWIDTH 506 0
DWIDTH 14 0
BBX 10 13 3 -1
BITMAP
B95400
B96400
016400
016400
016400
0166E0
016400
0166E0
016400
016400
B96400
016400
B95400
ENDCHAR
STARTCHAR asciitilde
ENCODING 126
SWIDTH 450 0
DWIDTH 13 0
BBX 11 4 1 4
BITMAP
6F9014
406BE0
6F9014
506BE0
ENDCHAR
STARTCHAR uni00A0
ENCODING 160
SWIDTH 280 0
DWIDTH 8 0
BBX 1 1 0 0
BITMAP
00
ENDCHAR
STARTCHAR exclamdown
ENCODING 161
SWIDTH 196 0
DWIDTH 5 0
BBX 3 11 1 -3
BITMAP
98
98
00
98
98
98
98
98
98
98
98
ENDCHAR
STARTCHAR cent
ENCODING 162
SWIDTH 305 0
DWIDTH 9 0
BBX 8 14 0 -1
BITMAP
0220
0230
06E4
290A
72E5
9904
9800
9800
9904
72E5
190A
06E4
0220
0230
ENDCHAR
STARTCHAR sterling
ENCODING 163
SWIDTH 408 0
DWIDTH 11 0
BBX 11 12 0 0
BITMAP
1BF800
340600
66E640
000000
BFFF00
000000
BFFF00
000000
154000
BFFFF8
000000
BFFFF8
ENDCHAR
STARTCHAR currency
ENCODING 164
SWIDTH 401 0
DWIDTH 11 0
BBX 9 10 1 1
BITMAP
100200
580540
92E0C0
091C00
19D900
19D900
091C00
92E080
440540
240200
ENDCHAR
STARTCHAR yen
ENCODING 165
SWIDTH 423 0
DWIDTH 12 0
BBX 12 12 0 0
BITMAP
6300C9
258258
0C9630
066C90
026980
018F00
004100
005900
1E59B4
005900
1E59B4
005900
ENDCHAR
STARTCHAR brokenbar
ENCODING 166
SWIDTH 196 0
DWIDTH 5 0
BBX 3 13 1 0
BITMAP
98
98
98
98
98
00
00
00
98
98
98
98
98
ENDCHAR
STARTCHAR section
ENCODING 167
SWIDTH 322 0
DWIDTH 9 0
BBX 7 14 1 -2
BITMAP
1BA0
ABA8
9454
8A40
6064
5A88
A468
9E48
65A0
0A98
1058
9B88
6028
1B90
ENDCHAR
STARTCHAR dieresis
ENCODING 168
SWIDTH 287 0
DWIDTH 8 0
BBX 6 2 1 14
BITMAP
70D0
70D0
ENDCHAR
STARTCHAR copyright
ENCODING 169
SWIDTH 493 0
DWIDTH 14 0
BBX 12 13 1 0
BITMAP
01BE40
0A01A0
240028
600009
80BD06
818243
820003
820003
818106
60BD09
240028
0A01A0
01BE40
ENDCHAR
STARTCHAR ordfeminine
ENCODING 170
SWIDTH 331 0
DWIDTH 9 0
BBX 7 5 1 6
BITMAP
0A50
1760
26A0
2AD4
5A98
ENDCHAR
STARTCHAR guillemotleft
ENCODING 171
SWIDTH 298 0
DWIDTH 8 0
BBX 6 6 1 3
BITMAP
0410
74A0
4450
4520
A1D0
1820
ENDCHAR
STARTCHAR logicalnot
ENCODING 172
SWIDTH 420 0
DWIDTH 12 0
BBX 10 6 1 1
BITMAP
BFFFE0
000000
BFFFE0
000000
000260
000260
ENDCHAR
STARTCHAR uni00AD
ENCODING 173
SWIDTH 326 0
DWIDTH 9 0
BBX 7 3 1 4
BITMAP
BFF8
0000
BFF8
ENDCHAR
STARTCHAR registered
ENCODING 174
SWIDTH 493 0
DWIDTH 14 0
BBX 12 13 1 0
BITMAP
01BE40
0A01A0
240028
600009
817E06
814243
814243
817E03
814206
600009
240028
0A01A0
01BE40
ENDCHAR
STARTCHAR macron
ENCODING 175
SWIDTH 331 0
DWIDTH 9 0
BBX 7 1 1 14
BITMAP
BFF8
ENDCHAR
STARTCHAR degree
ENCODING 176
SWIDTH 298 0
DWIDTH 8 0
BBX 6 6 1 6
BITMAP
1B80
60A0
9A20
9A20
60A0
1B80
ENDCHAR
STARTCHAR plusminus
ENCODING 177
SWIDTH 418 0
DWIDTH 12 0
BBX 10 12 1 0
BITMAP
016400
016400
016400
7566D0
016400
7566D0
016400
016400
000000
BFFFE0
000000
BFFFE0
ENDCHAR
STARTCHAR uni00B2
ENCODING 178
SWIDTH 233 0
DWIDTH 7 0
BBX 4 5 1 6
BITMAP
7E
1A
15
6A
6A
ENDCHAR
STARTCHAR uni00B3
ENCODING 179
SWIDTH 228 0
DWIDTH 6 0
BBX 4 5 1 6
BITMAP
7E
09
06
5A
29
ENDCHAR
STARTCHAR acute
ENCODING 180
SWIDTH 195 0
DWIDTH 5 0
BBX 3 3 1 14
BITMAP
18
24
60
ENDCHAR
STARTCHAR uni00B5
ENCODING 181
SWIDTH 506 0
DWIDTH 14 0
BBX 13 16 1 -4
BITMAP
98065000
98065000
98065000
98065000
98065000
98065000
98065000
98059000
98099000
99E49D00
98075000
99F96F40
98000000
98000000
98000000
44000000
ENDCHAR
STARTCHAR paragraph
ENCODING 182
SWIDTH 435 0
DWIDTH 12 0
BBX 11 12 0 0
BITMAP
0BFFF8
280000
22FFF8
660000
660948
22C948
280948
0BC948
000948
000948
000948
000948
ENDCHAR
STARTCHAR periodcentered
ENCODING 183
SWIDTH 176 0
DWIDTH 5 0
BBX 3 2 1 5
BITMAP
88
88
ENDCHAR
STARTCHAR cedilla
ENCODING 184
SWIDTH 261 0
DWIDTH 7 0
BBX 5 5 1 -5
BITMAP
1800
3F40
1080
1180
6E40
ENDCHAR
STARTCHAR uni00B9
ENCODING 185
SWIDTH 218 0
DWIDTH 6 0
BBX 4 5 1 6
BITMAP
FA
0A
0A
0A
0A
ENDCHAR
STARTCHAR ordmasculine
ENCODING 186
SWIDTH 335 0
DWIDTH 9 0
BBX 7 7 1 6
BITMAP
0A90
2424
5688
9858
6868
2AA4
0A90
ENDCHAR
STARTCHAR guillemotright
ENCODING 187
SWIDTH 298 0
DWIDTH 8 0
BBX 6 6 1 3
BITMAP
4140
74A0
4510
4550
2860
9180
ENDCHAR
STARTCHAR onequarter
ENCODING 188
SWIDTH 429 0
DWIDTH 12 0
BBX 11 12 1 0
BITMAP
980250
980580
180A00
181600
182800
185800
00A290
016280
028540
054064
0A0664
150664
ENDCHAR
STARTCHAR onehalf
ENCODING 189
SWIDTH 437 0
DWIDTH 12 0
BBX 11 12 1 0
BITMAP
980280
980940
180A00
182500
181800
189400
0161A0
0296A4
058094
0A0150
1606A4
1406A4
ENDCHAR
STARTCHAR threequarters
ENCODING 190
SWIDTH 409 0
DWIDTH 11 0
BBX 10 12 1 0
BITMAP
680140
A50940
180A00
152500
A55800
689400
016280
028A40
058A00
0A19A0
1500A0
2819A0
ENDCHAR
STARTCHAR questiondown
ENCODING 191
SWIDTH 346 0
DWIDTH 10 0
BBX 7 12 1 -2
BITMAP
0990
0580
0000
0990
0980
18C0
6240
5A00
9954
5788
2428
0BE0
ENDCHAR
STARTCHAR Agrave
ENCODING 192
SWIDTH 798 0
DWIDTH 22 0
BBX 22 31 0 0
BITMAP
000660000000
000224000000
000188000000
000099000000
000023000000
000025800000
000000000000
000000000000
000059900000
00008CC00000
000199940000
000266480000
000333590000
000666660000
000999330000
000CCD664000
001998998000
00266088C000
002220559000
006550226000
008880262000
008880196400
01566FDC8800
022200099800
02667FE66500
059900033200
08CCFFF66640
199800019980
26640000CCC0
333000009990
666000006660
ENDCHAR
STARTCHAR Aacute
ENCODING 193
SWIDTH 798 0
DWIDTH 22 0
BBX 22 31 0 0
BITMAP
000000324000
000000560000
000000CC0000
000002580000
000006300000
000009900000
000000000000
000000000000
000059900000
00008CC00000
000199940000
000266480000
000333590000
000666660000
000999330000
000CCD664000
001998998000
00266088C000
002220559000
006550226000
008880262000
008880196400
01566FDC8800
022200099800
02667FE66500
059900033200
08CCFFF66640
199800019980
26640000CCC0
333000009990
666000006660
ENDCHAR
STARTCHAR Acircumflex
ENCODING 194
SWIDTH 798 0
DWIDTH 22 0
BBX 22 31 0 0
BITMAP
000062400000
0000C9600000
000258240000
0006318C0000
000C90960000
002580324000
000000000000
000000000000
000059900000
00008CC00000
000199940000
000266480000
000333590000
000666660000
000999330000
000CCD664000
001998998000
00266088C000
002220559000
006550226000
008880262000
008880196400
01566FDC8800
022200099800
02667FE66500
059900033200
08CCFFF66640
199800019980
26640000CCC0
333000009990
666000006660
ENDCHAR
STARTCHAR Atilde
ENCODING 195
SWIDTH 798 0
DWIDTH 22 0
BBX 22 29 0 0
BITMAP
0002E4014000
000A09024000
000C02470000
000800B90000
000000000000
000000000000
000059900000
00008CC00000
000199940000
000266480000
000333590000
000666660000
000999330000
000CCD664000
001998998000
00266088C000
002220559000
006550226000
008880262000
008880196400
01566FDC8800
022200099800
02667FE66500
059900033200
08CCFFF66640
199800019980
26640000CCC0
333000009990
666000006660
ENDCHAR
STARTCHAR Adieresis
ENCODING 196
SWIDTH 798 0
DWIDTH 22 0
BBX 22 31 0 0
BITMAP
000B801E4000
002460609000
006020906000
006020906000
002460609000
000B801E4000
000000000000
000000000000
000059900000
00008CC00000
000199940000
000266480000
000333590000
000666660000
000999330000
000CCD664000
001998998000
00266088C000
002220559000
006550226000
008880262000
008880196400
01566FDC8800
022200099800
02667FE66500
059900033200
08CCFFF66640
199800019980
26640000CCC0
333000009990
666000006660
ENDCHAR
STARTCHAR Aring
ENCODING 197
SWIDTH 798 0
DWIDTH 22 0
BBX 22 31 0 0
BITMAP
00001B800000
000060600000
000090200000
000090200000
000060600000
00001B800000
000000000000
000000000000
000059900000
00008CC00000
000199940000
000266480000
000333590000
000666660000
000999330000
000CCD664000
001998998000
00266088C000
002220559000
006550226000
008880262000
008880196400
01566FDC8800
022200099800
02667FE66500
059900033200
08CCFFF66640
199800019980
26640000CCC0
333000009990
666000006660
ENDCHAR
STARTCHAR AE
ENCODING 198
SWIDTH 1078 0
DWIDTH 30 0
BBX 30 23 0 0
BITMAP
000000899FFFFFD0
0000018C8FFFFFD0
00000588C0000000
000008988BFFFFD0
0000145980000000
0000226590000000
0000566550000000
00008C2650000000
0001992260000000
0002322227FFFE00
0006662320000000
0008892633FFFE00
0019882660000000
0022641662FFFE00
0066201964000000
0089900994000000
01988B8998000000
0266400C98000000
06622FC8C9FFFFD0
09990008CC000000
188CBFD98CFFFFD0
2664000598000000
6230000599BFFFD0
ENDCHAR
STARTCHAR Ccedilla
ENCODING 199
SWIDTH 776 0
DWIDTH 22 0
BBX 20 30 1 -7
BITMAP
0001AFF900
001EAFEAA4
00AA40069A
03746FE460
09D7901B54
2658000080
3660000000
5890000000
8880000000
D980000000
9940000000
9940000000
9980000000
C880000000
8890000000
5660000000
3258000080
24D7901B54
09746FE460
034A40068A
00A06FE428
001E400690
0001BFE900
0000280000
0000300000
0000BE4000
000090C000
0000009000
0001418000
0001BE4000
ENDCHAR
STARTCHAR Egrave
ENCODING 200
SWIDTH 677 0
DWIDTH 19 0
BBX 17 31 1 0
BITMAP
0002300000
0002580000
0000C90000
0000660000
0000224000
0000188000
0000000000
0000000000
98CFFFFFC0
98CFFFFFC0
98C0000000
98CFFFFFC0
98C0000000
98C0000000
98C0000000
98C0000000
98C0000000
98CFFFFD00
98C0000000
98CFFFFD00
98C0000000
98CFFFFD00
98C0000000
98C0000000
98C0000000
98C0000000
98CFFFFFC0
98C0000000
98CFFFFFC0
98C0000000
98CFFFFFC0
ENDCHAR
STARTCHAR Eacute
ENCODING 201
SWIDTH 677 0
DWIDTH 19 0
BBX 17 31 1 0
BITMAP
0000198000
0000324000
0000960000
00008C0000
0002540000
0006300000
0000000000
0000000000
98CFFFFFC0
98CFFFFFC0
98C0000000
98CFFFFFC0
98C0000000
98C0000000
98C0000000
98C0000000
98C0000000
98CFFFFD00
98C0000000
98CFFFFD00
98C0000000
98CFFFFD00
98C0000000
98C0000000
98C0000000
98C0000000
98CFFFFFC0
98C0000000
98CFFFFFC0
98C0000000
98CFFFFFC0
ENDCHAR
STARTCHAR Ecircumflex
ENCODING 202
SWIDTH 677 0
DWIDTH 19 0
BBX 17 31 1 0
BITMAP
0002980000
0006354000
000C908000
0025896000
0063032400
00C9018C00
0000000000
0000000000
98CFFFFFC0
98CFFFFFC0
98C0000000
98CFFFFFC0
98C0000000
98C0000000
98C0000000
98C0000000
98C0000000
98CFFFFD00
98C0000000
98CFFFFD00
98C0000000
98CFFFFD00
98C0000000
98C0000000
98C0000000
98C0000000
98CFFFFFC0
98C0000000
98CFFFFFC0
98C0000000
98CFFFFFC0
ENDCHAR
STARTCHAR Edieresis
ENCODING 203
SWIDTH 677 0
DWIDTH 19 0
BBX 17 31 1 0
BITMAP
006E00B900
0182424700
0240830240
0240830240
0182424700
006E00B900
0000000000
0000000000
98CFFFFFC0
98CFFFFFC0
98C0000000
98CFFFFFC0
98C0000000
98C0000000
98C0000000
98C0000000
98C0000000
98CFFFFD00
98C0000000
98CFFFFD00
98C0000000
98CFFFFD00
98C0000000
98C0000000
98C0000000
98C0000000
98CFFFFFC0
98C0000000
98CFFFFFC0
98C0000000
98CFFFFFC0
ENDCHAR
STARTCHAR Igrave
ENCODING 204
SWIDTH 262 0
DWIDTH 7 0
BBX 8 31 -2 0
BITMAP
6300
2540
08C0
0960
0324
0198
0000
0000
0263
0263
0263
0263
0263
0263
0263
0263
0263
0263
0263
0263
0263
0263
0263
0263
0263
0263
0263
0263
0263
0263
0263
ENDCHAR
STARTCHAR Iacute
ENCODING 205
SWIDTH 262 0
DWIDTH 7 0
BBX 8 31 1 0
BITMAP
0099
0198
0324
0660
0C80
2580
0000
0000
98C0
98C0
98C0
98C0
98C0
98C0
98C0
98C0
98C0
98C0
98C0
98C0
98C0
98C0
98C0
98C0
98C0
98C0
98C0
98C0
98C0
98C0
98C0
ENDCHAR
STARTCHAR Icircumflex
ENCODING 206
SWIDTH 262 0
DWIDTH 7 0
BBX 12 31 -3 0
BITMAP
009600
019C80
062460
09A224
258189
6300A6
000000
000000
0098C0
0098C0
0098C0
0098C0
0098C0
0098C0
0098C0
0098C0
0098C0
0098C0
0098C0
0098C0
0098C0
0098C0
0098C0
0098C0
0098C0
0098C0
0098C0
0098C0
0098C0
0098C0
0098C0
ENDCHAR
STARTCHAR Idieresis
ENCODING 207
SWIDTH 262 0
DWIDTH 7 0
BBX 13 31 -3 0
BITMAP
1E402E00
60909180
80618080
80618080
60909180
2E402E00
00000000
00000000
0098C000
0098C000
0098C000
0098C000
0098C000
0098C000
0098C000
0098C000
0098C000
0098C000
0098C000
0098C000
0098C000
0098C000
0098C000
0098C000
0098C000
0098C000
0098C000
0098C000
0098C000
0098C000
0098C000
ENDCHAR
STARTCHAR Eth
ENCODING 208
SWIDTH 856 0
DWIDTH 24 0
BBX 23 23 0 0
BITMAP
0659BFE90000
0659BFEAD000
06590006A800
0659BFA47700
0659001B5D80
065900009660
065900003270
065900001994
000000000CD8
BFFFFD00099C
000000000998
BFFFFD000998
000000000998
BFFFFD000CCC
000000001988
065900003254
065900009630
0659001B5C60
0659BFA47580
065900068700
0659BFE92800
06590006D000
0659BFE90000
ENDCHAR
STARTCHAR Ntilde
ENCODING 209
SWIDTH 796 0
DWIDTH 22 0
BBX 20 29 1 0
BITMAP
000B900500
0028240900
0030091C00
002002E000
0000000000
0000000000
98C0000263
98C0000263
98C8000263
98C9000263
98C3000263
98C5800263
98C8900263
98C6300263
98C6580263
98C8990263
98C6624263
98C2598263
98C0C9A263
98C0632663
98C0258663
98C00C9263
98C0063263
98C0025663
98C0009263
98C0006263
98C0002663
98C0000263
98C0000263
ENDCHAR
STARTCHAR Ograve
ENCODING 210
SWIDTH 894 0
DWIDTH 25 0
BBX 23 31 1 0
BITMAP
000320000000
000158000000
0000C9000000
000066000000
000026400000
000018C00000
000000000000
000000000000
0001AFE90000
001EAFEAD000
00AA4006A800
03746FE47700
09D7901B5D80
265800009660
366000002660
589000001894
888000000888
D98000000998
994000000598
994000000598
998000000998
C88000000888
889000001888
566000002654
325800009620
24D7901B5C60
09746FE47580
034A40068700
00A06FE42800
001E4006D000
0001AFE90000
ENDCHAR
STARTCHAR Oacute
ENCODING 211
SWIDTH 894 0
DWIDTH 25 0
BBX 23 31 1 0
BITMAP
000000620000
000000890000
000001980000
000003240000
000009600000
000008C00000
000000000000
000000000000
0001AFE90000
001EAFEAD000
00AA4006A800
03746FE47700
09D7901B5D80
265800009660
366000002660
589000001894
888000000888
D98000000998
994000000598
994000000598
998000000998
C88000000888
889000001888
566000002654
325800009620
24D7901B5C60
09746FE47580
034A40068700
00A06FE42800
001E4006D000
0001AFE90000
ENDCHAR
STARTCHAR Ocircumflex
ENCODING 212
SWIDTH 894 0
DWIDTH 25 0
BBX 23 31 1 0
BITMAP
000036400000
000096200000
00018C180000
000324C90000
000960630000
0018C0258000
000000000000
000000000000
0001AFE90000
001EAFEAD000
00AA4006A800
03746FE47700
09D7901B5D80
265800009660
366000002660
589000001894
888000000888
D98000000998
994000000598
994000000598
998000000998
C88000000888
889000001888
566000002654
325800009620
24D7901B5C60
09746FE47580
034A40068700
00A06FE42800
001E4006D000
0001AFE90000
ENDCHAR
STARTCHAR Otilde
ENCODING 213
SWIDTH 894 0
DWIDTH 25 0
BBX 23 29 1 0
BITMAP
0001B4008000
00060A018000
000902824000
000800B90000
000000000000
000000000000
0001AFE90000
001EAFEAD000
00AA4006A800
03746FE47700
09D7901B5D80
265800009660
366000002660
589000001894
888000000888
D98000000998
994000000598
994000000598
998000000998
C88000000888
889000001888
566000002654
325800009620
24D7901B5C60
09746FE47580
034A40068700
00A06FE42800
001E4006D000
0001AFE90000
ENDCHAR
STARTCHAR Odieresis
ENCODING 214
SWIDTH 894 0
DWIDTH 25 0
BBX 23 31 1 0
BITMAP
000B901B8000
002820346000
002014603000
002014603000
002830346000
000B901B8000
000000000000
000000000000
0001AFE90000
001EAFEAD000
00AA4006A800
03746FE47700
09D7901B5D80
265800009660
366000002660
589000001894
888000000888
D98000000998
994000000598
994000000598
998000000998
C88000000888
889000001888
566000002654
325800009620
24D7901B5C60
09746FE47580
034A40068700
00A06FE42800
001E4006D000
0001AFE90000
ENDCHAR
STARTCHAR multiply
ENCODING 215
SWIDTH 370 0
DWIDTH 10 0
BBX 8 8 1 1
BITMAP
1C24
94A2
228D
0A34
28D4
6356
0D24
0004
ENDCHAR
STARTCHAR Oslash
ENCODING 216
SWIDTH 894 0
DWIDTH 25 0
BBX 23 23 1 0
BITMAP
0001AFA91900
001EAFE43710
00AA40149990
07746FE19980
0DD790036210
265800099920
2660001A5964
989000666198
8880009C98CC
D98042664598
9940C6660598
99424DCC0598
998626440998
CC986A00088C
9924D8001898
65A270002654
218A90009630
1219801B4C90
09272FE47580
189950068600
11986FE52800
03624006D000
0051AFE90000
ENDCHAR
STARTCHAR Ugrave
ENCODING 217
SWIDTH 702 0
DWIDTH 20 0
BBX 18 31 1 0
BITMAP
008C000000
0096000000
0032400000
0019800000
0008900000
0006200000
0000000000
0000000000
98C0006590
98C0006590
98C0006590
98C0006590
98C0006590
98C0006590
98C0006590
98C0006590
98C0006590
98C0006590
98C0006590
98C0006590
98C0006590
98C0006590
98C0006590
9980009990
556000C880
2328065980
2586F97240
0C6402D600
060AF91800
01E401A000
001BFE4000
ENDCHAR
STARTCHAR Uacute
ENCODING 218
SWIDTH 702 0
DWIDTH 20 0
BBX 18 31 1 0
BITMAP
0000096000
000008C000
0000254000
0000630000
0000990000
0001980000
0000000000
0000000000
98C0006590
98C0006590
98C0006590
98C0006590
98C0006590
98C0006590
98C0006590
98C0006590
98C0006590
98C0006590
98C0006590
98C0006590
98C0006590
98C0006590
98C0006590
9980009990
556000C880
2328065980
2586F97240
0C6402D600
060AF91800
01E401A000
001BFE4000
ENDCHAR
STARTCHAR Ucircumflex
ENCODING 219
SWIDTH 702 0
DWIDTH 20 0
BBX 18 31 1 0
BITMAP
0009600000
0018C90000
0032460000
0096258000
018C0C9000
0324063000
0000000000
0000000000
98C0006590
98C0006590
98C0006590
98C0006590
98C0006590
98C0006590
98C0006590
98C0006590
98C0006590
98C0006590
98C0006590
98C0006590
98C0006590
98C0006590
98C0006590
9980009990
556000C880
2328065980
2586F97240
0C6402D600
060AF91800
01E401A000
001BFE4000
ENDCHAR
STARTCHAR Udieresis
ENCODING 220
SWIDTH 702 0
DWIDTH 20 0
BBX 18 31 1 0
BITMAP
01B402E400
0609091C00
0902080900
0902080900
0609091C00
01B402E400
0000000000
0000000000
98C0006590
98C0006590
98C0006590
98C0006590
98C0006590
98C0006590
98C0006590
98C0006590
98C0006590
98C0006590
98C0006590
98C0006590
98C0006590
98C0006590
98C0006590
9980009990
556000C880
2328065980
2586F97240
0C6402D600
060AF91800
01E401A000
001BFE4000
ENDCHAR
STARTCHAR Yacute
ENCODING 221
SWIDTH 769 0
DWIDTH 22 0
BBX 21 31 0 0
BITMAP
000000990000
000001980000
000003240000
000005600000
00000C800000
000025800000
000000000000
000000000000
6630000298C0
265800063240
088900099600
066300198C00
026580326400
018C90966000
00963188C000
002259264000
0018C9660000
000966090000
000326580000
000188C00000
000000000000
000058800000
000059800000
000059800000
000059800000
000059800000
000059800000
000059800000
000059800000
000059800000
000059800000
ENDCHAR
STARTCHAR Thorn
ENCODING 222
SWIDTH 743 0
DWIDTH 21 0
BBX 19 23 1 0
BITMAP
98C0000000
98C0000000
98C0000000
98C0000000
98CFFFE900
98C0000680
98CFFFE4A0
98C0000624
98CFFFE598
98C0001C8C
98C0000998
98C0000998
98C0001C8C
98CFFFE598
98C0000624
98CFFFE8A0
98C0000680
98CFFFE900
98C0000000
98C0000000
98C0000000
98C0000000
98C0000000
ENDCHAR
STARTCHAR germandbls
ENCODING 223
SWIDTH 424 0
DWIDTH 12 0
BBX 10 12 1 0
BITMAP
1BFE00
600180
97F890
8C0650
880650
887F90
880090
887E20
880230
88BE20
880090
88BF40
ENDCHAR
STARTCHAR agrave
ENCODING 224
SWIDTH 414 0
DWIDTH 12 0
BBX 11 17 0 0
BITMAP
008000
006000
002400
000000
000000
008D00
009E00
016700
023640
027880
099C80
08C950
198620
26FF20
330254
67FFC8
990098
ENDCHAR
STARTCHAR aacute
ENCODING 225
SWIDTH 414 0
DWIDTH 12 0
BBX 11 17 0 0
BITMAP
000200
000600
000C00
000000
000000
008D00
009E00
016700
023640
027880
099C80
08C950
198620
26FF20
330254
67FFC8
990098
ENDCHAR
STARTCHAR acircumflex
ENCODING 226
SWIDTH 414 0
DWIDTH 12 0
BBX 11 17 0 0
BITMAP
006000
00C500
024300
000000
000000
008D00
009E00
016700
023640
027880
099C80
08C950
198620
26FF20
330254
67FFC8
990098
ENDCHAR
STARTCHAR atilde
ENCODING 227
SWIDTH 414 0
DWIDTH 12 0
BBX 11 16 0 0
BITMAP
02E080
061B40
000000
000000
008D00
009E00
016700
023640
027880
099C80
08C950
198620
26FF20
330254
67FFC8
990098
ENDCHAR
STARTCHAR adieresis
ENCODING 228
SWIDTH 414 0
DWIDTH 12 0
BBX 11 16 0 0
BITMAP
018740
02C740
000000
000000
008D00
009E00
016700
023640
027880
099C80
08C950
198620
26FF20
330254
67FFC8
990098
ENDCHAR
STARTCHAR aring
ENCODING 229
SWIDTH 414 0
DWIDTH 12 0
BBX 11 16 0 0
BITMAP
007800
009500
007800
000000
008D00
009E00
016700
023640
027880
099C80
08C950
198620
26FF20
330254
67FFC8
990098
ENDCHAR
STARTCHAR ae
ENCODING 230
SWIDTH 593 0
DWIDTH 17 0
BBX 16 12 0 0
BITMAP
0008BFFF
0015E000
00327FFF
00572000
00CB2000
015A3FFD
03266000
05626FFD
0C816400
15FF9FFF
32019400
56009FFF
ENDCHAR
STARTCHAR ccedilla
ENCODING 231
SWIDTH 446 0
DWIDTH 12 0
BBX 11 17 1 -5
BITMAP
01BE40
1900A0
21BE14
964180
CC0000
980000
980000
CC0000
964180
21BE14
1900A0
01BE40
006000
00F900
004600
000600
01B800
ENDCHAR
STARTCHAR egrave
ENCODING 232
SWIDTH 363 0
DWIDTH 10 0
BBX 9 17 1 0
BITMAP
030000
014000
00C000
000000
000000
8FFF80
880000
8FFF80
880000
880000
8FFE00
880000
8FFE00
880000
8FFF80
880000
8FFF80
ENDCHAR
STARTCHAR eacute
ENCODING 233
SWIDTH 363 0
DWIDTH 10 0
BBX 9 17 1 0
BITMAP
000C00
002400
002000
000000
000000
8FFF80
880000
8FFF80
880000
880000
8FFE00
880000
8FFE00
880000
8FFF80
880000
8FFF80
ENDCHAR
STARTCHAR ecircumflex
ENCODING 234
SWIDTH 363 0
DWIDTH 10 0
BBX 9 17 1 0
BITMAP
018000
032400
090C00
000000
000000
8FFF80
880000
8FFF80
880000
880000
8FFE00
880000
8FFE00
880000
8FFF80
880000
8FFF80
ENDCHAR
STARTCHAR edieresis
ENCODING 235
SWIDTH 363 0
DWIDTH 10 0
BBX 9 16 1 0
BITMAP
0A1D00
0B1D00
000000
000000
8FFF80
880000
8FFF80
880000
880000
8FFE00
880000
8FFE00
880000
8FFF80
880000
8FFF80
ENDCHAR
STARTCHAR igrave
ENCODING 236
SWIDTH 176 0
DWIDTH 5 0
BBX 4 17 0 0
BITMAP
60
20
18
00
00
22
22
22
22
22
22
22
22
22
22
22
22
ENDCHAR
STARTCHAR iacute
ENCODING 237
SWIDTH 176 0
DWIDTH 5 0
BBX 4 17 1 0
BITMAP
06
08
18
00
00
88
88
88
88
88
88
88
88
88
88
88
88
ENDCHAR
STARTCHAR icircumflex
ENCODING 238
SWIDTH 176 0
DWIDTH 5 0
BBX 6 17 -1 0
BITMAP
0900
1880
6060
0000
0000
0880
0880
0880
0880
0880
0880
0880
0880
0880
0880
0880
0880
ENDCHAR
STARTCHAR idieresis
ENCODING 239
SWIDTH 176 0
DWIDTH 5 0
BBX 5 16 0 0
BITMAP
9280
E2C0
0000
0000
2200
2200
2200
2200
2200
2200
2200
2200
2200
2200
2200
2200
ENDCHAR
STARTCHAR eth
ENCODING 240
SWIDTH 455 0
DWIDTH 13 0
BBX 12 12 0 0
BITMAP
23FE40
2300A0
23FE58
2301D9
000062
000032
BFD032
000062
2301D9
23FE58
2300A0
23FE40
ENDCHAR
STARTCHAR ntilde
ENCODING 241
SWIDTH 444 0
DWIDTH 12 0
BBX 11 16 1 0
BITMAP
079140
082E00
000000
000000
8D0164
8E0164
8A4164
8CD164
8E6164
8A6564
888A64
886764
882664
880964
880764
880264
ENDCHAR
STARTCHAR ograve
ENCODING 242
SWIDTH 494 0
DWIDTH 14 0
BBX 12 17 1 0
BITMAP
00C000
006000
002000
000000
000000
01BE40
1900A0
21BE18
9641D9
CC0062
980022
980022
CC0062
9641D9
21BE18
1900A0
01BE40
ENDCHAR
STARTCHAR oacute
ENCODING 243
SWIDTH 494 0
DWIDTH 14 0
BBX 12 17 1 0
BITMAP
000600
000900
001800
000000
000000
01BE40
1900A0
21BE18
9641D9
CC0062
980022
980022
CC0062
9641D9
21BE18
1900A0
01BE40
ENDCHAR
STARTCHAR ocircumflex
ENCODING 244
SWIDTH 494 0
DWIDTH 14 0
BBX 12 17 1 0
BITMAP
006000
00C500
024300
000000
000000
01BE40
1900A0
21BE18
9641D9
CC0062
980022
980022
CC0062
9641D9
21BE18
1900A0
01BE40
ENDCHAR
STARTCHAR otilde
ENCODING 245
SWIDTH 494 0
DWIDTH 14 0
BBX 12 16 1 0
BITMAP
02E480
061B40
000000
000000
01BE40
1900A0
21BE18
9641D9
CC0062
980022
980022
CC0062
9641D9
21BE18
1900A0
01BE40
ENDCHAR
STARTCHAR odieresis
ENCODING 246
SWIDTH 494 0
DWIDTH 14 0
BBX 12 16 1 0
BITMAP
018340
02C740
000000
000000
01BE40
1900A0
21BE18
9641D9
CC0062
980022
980022
CC0062
9641D9
21BE18
1900A0
01BE40
ENDCHAR
STARTCHAR divide
ENCODING 247
SWIDTH 418 0
DWIDTH 12 0
BBX 10 10 1 0
BITMAP
01A000
01A000
000000
BFFFE0
000000
BFFFE0
000000
00A000
016000
00A000
ENDCHAR
STARTCHAR oslash
ENCODING 248
SWIDTH 494 0
DWIDTH 14 0
BBX 12 12 1 0
BITMAP
01BE48
1D0124
21B890
964289
CC0626
981823
987022
C4D062
9241D5
097E58
2800A0
21BE40
ENDCHAR
STARTCHAR ugrave
ENCODING 249
SWIDTH 400 0
DWIDTH 11 0
BBX 9 17 1 0
BITMAP
060000
024000
018000
000000
000000
880980
880980
880980
880980
880980
880980
880980
8C0980
8918C0
62E580
280600
07F800
ENDCHAR
STARTCHAR uacute
ENCODING 250
SWIDTH 400 0
DWIDTH 11 0
BBX 9 17 1 0
BITMAP
001800
003000
009000
000000
000000
880980
880980
880980
880980
880980
880980
880980
8C0980
8918C0
62E580
280600
07F800
ENDCHAR
STARTCHAR ucircumflex
ENCODING 251
SWIDTH 400 0
DWIDTH 11 0
BBX 9 17 1 0
BITMAP
028000
062000
0C1800
000000
000000
880980
880980
880980
880980
880980
880980
880980
8C0980
8918C0
62E580
280600
07F800
ENDCHAR
STARTCHAR udieresis
ENCODING 252
SWIDTH 400 0
DWIDTH 11 0
BBX 9 16 1 0
BITMAP
0A1800
0A1C00
000000
000000
880980
880980
880980
880980
880980
880980
880980
8C0980
8918C0
62E580
280600
07F800
ENDCHAR
STARTCHAR yacute
ENCODING 253
SWIDTH 422 0
DWIDTH 12 0
BBX 12 17 0 0
BITMAP
000600
000900
001800
000000
000000
6300C9
268258
0C9630
0A6C90
026980
018F00
004100
005900
005900
005900
005900
005900
ENDCHAR
STARTCHAR thorn
ENCODING 254
SWIDTH 412 0
DWIDTH 12 0
BBX 10 12 1 0
BITMAP
880000
880000
8FFE00
8801C0
8FFD50
880260
880260
8FFD50
8801C0
8FFE00
880000
880000
ENDCHAR
STARTCHAR ydieresis
ENCODING 255
SWIDTH 422 0
DWIDTH 12 0
BBX 12 16 0 0
BITMAP
018740
02C740
000000
000000
6300C9
268258
0C9630
0A6C90
026980
018F00
004100
005900
005900
005900
005900
005900
ENDCHAR
STARTCHAR Edotaccent
ENCODING 278
SWIDTH 677 0
DWIDTH 19 0
BBX 17 28 1 0
BITMAP
0000280000
00007C0000
0000380000
0000000000
0000000000
98CFFFFFC0
98CFFFFFC0
98C0000000
98CFFFFFC0
98C0000000
98C0000000
98C0000000
98C0000000
98C0000000
98CFFFFD00
98C0000000
98CFFFFD00
98C0000000
98CFFFFD00
98C0000000
98C0000000
98C0000000
98C0000000
98CFFFFFC0
98C0000000
98CFFFFFC0
98C0000000
98CFFFFFC0
ENDCHAR
STARTCHAR edotaccent
ENCODING 279
SWIDTH 363 0
DWIDTH 10 0
BBX 9 17 1 0
BITMAP
00A000
01F000
00E000
000000
000000
8FFF80
880000
8FFF80
880000
880000
8FFE00
880000
8FFE00
880000
8FFF80
880000
8FFF80
ENDCHAR
STARTCHAR dotlessi
ENCODING 305
SWIDTH 176 0
DWIDTH 5 0
BBX 3 12 1 0
BITMAP
88
88
88
88
88
88
88
88
88
88
88
88
ENDCHAR
STARTCHAR OE
ENCODING 338
SWIDTH 1221 0
DWIDTH 34 0
BBX 33 23 1 0
BITMAP
0001AFF8002FFFFF40
001EAFF8002FFFFF40
00AA40000000000000
03746FF8002FFFFF40
09D790000000000000
265800000000000000
366000000000000000
589000000000000000
9C8000000000000000
D9800000002FFFF800
994000000000000000
99400000002FFFF800
998000000000000000
CC800000002FFFF800
889000000000000000
566000000000000000
325800000000000000
24D790000000000000
09746BF8002FFFFF40
034A40000000000000
00A1AFF8002FFFFF40
001E40000000000000
0001AFF8002FFFFF40
ENDCHAR
STARTCHAR oe
ENCODING 339
SWIDTH 637 0
DWIDTH 18 0
BBX 17 12 1 0
BITMAP
02FE07FF40
1D00000000
21BE07FF40
9640000000
CC00000000
980007FD00
9800000000
CC0007FD00
9640000000
21BE07FF40
1900000000
02FE07FF40
ENDCHAR
STARTCHAR Wcircumflex
ENCODING 372
SWIDTH 972 0
DWIDTH 27 0
BBX 27 31 0 0
BITMAP
00000258000000
00000A62000000
00001891800000
0000324C900000
00009606300000
00018C02580000
00000000000000
00000000000000
65900199400998
22600266401564
23200223002620
26600226003320
19640665002660
09980998405590
08C8088C809880
0998089880CC80
06591954509980
02662661615640
02322232326200
02622262623200
01565551946600
00998988985900
00CC88C88C8800
00988989988800
00559146651800
00266203262400
00332302232000
00262102661000
00156401994000
00099800C98000
000C880088C000
ENDCHAR
STARTCHAR wcircumflex
ENCODING 373
SWIDTH 521 0
DWIDTH 15 0
BBX 15 17 0 0
BITMAP
00090000
00248000
00609000
00000000
00000000
990CC264
65098230
2615C260
23269650
26335990
19A628C0
09D73980
08DA6940
099D9640
05688B00
02748E00
03309900
ENDCHAR
STARTCHAR Ycircumflex
ENCODING 374
SWIDTH 769 0
DWIDTH 22 0
BBX 21 31 0 0
BITMAP
000096000000
00018C800000
000324600000
000962680000
0019C0C90000
006240630000
000000000000
000000000000
6630000298C0
265800063240
088900099600
066300198C00
026580326400
018C90966000
00963188C000
002259264000
0018C9660000
000966090000
000326580000
000188C00000
000000000000
000058800000
000059800000
000059800000
000059800000
000059800000
000059800000
000059800000
000059800000
000059800000
000059800000
ENDCHAR
STARTCHAR ycircumflex
ENCODING 375
SWIDTH 422 0
DWIDTH 12 0
BBX 12 17 0 0
BITMAP
006000
00C500
024300
000000
000000
6300C9
268258
0C9630
0A6C90
026980
018F00
004100
005900
005900
005900
005900
005900
ENDCHAR
STARTCHAR Ydieresis
ENCODING 376
SWIDTH 769 0
DWIDTH 22 0
BBX 21 31 0 0
BITMAP
001A402E0000
006090918000
009060809000
009060809000
00609091C000
001B402E4000
000000000000
000000000000
6630000298C0
265800063240
088900099600
066300198C00
026580326400
018C90966000
00963188C000
002259264000
0018C9660000
000966090000
000326580000
000188C00000
000000000000
000058800000
000059800000
000059800000
000059800000
000059800000
000059800000
000059800000
000059800000
000059800000
000059800000
ENDCHAR
STARTCHAR circumflex
ENCODING 710
SWIDTH 298 0
DWIDTH 8 0
BBX 6 3 1 14
BITMAP
0900
1880
60A0
ENDCHAR
STARTCHAR dotaccent
ENCODING 729
SWIDTH 212 0
DWIDTH 6 0
BBX 3 3 1 14
BITMAP
28
7C
38
ENDCHAR
STARTCHAR ring
ENCODING 730
SWIDTH 212 0
DWIDTH 6 0
BBX 4 3 1 13
BITMAP
68
95
68
ENDCHAR
STARTCHAR tilde
ENCODING 732
SWIDTH 329 0
DWIDTH 9 0
BBX 7 2 1 14
BITMAP
2E18
51E4
ENDCHAR
STARTCHAR gravecomb
ENCODING 768
SWIDTH 0 0
DWIDTH 0 0
BBX 3 3 1 14
BITMAP
60
24
18
ENDCHAR
STARTCHAR acutecomb
ENCODING 769
SWIDTH 0 0
DWIDTH 0 0
BBX 3 3 1 14
BITMAP
18
24
60
ENDCHAR
STARTCHAR uni0302
ENCODING 770
SWIDTH 0 0
DWIDTH 0 0
BBX 6 3 1 14
BITMAP
0900
1880
60A0
ENDCHAR
STARTCHAR tildecomb
ENCODING 771
SWIDTH 0 0
DWIDTH 0 0
BBX 7 2 1 14
BITMAP
2E18
51E4
ENDCHAR
STARTCHAR uni0307
ENCODING 775
SWIDTH 0 0
DWIDTH 0 0
BBX 3 3 1 14
BITMAP
28
7C
38
ENDCHAR
STARTCHAR uni0308
ENCODING 776
SWIDTH 0 0
DWIDTH 0 0
BBX 6 2 1 14
BITMAP
70D0
70D0
ENDCHAR
STARTCHAR uni030A
ENCODING 778
SWIDTH 0 0
DWIDTH 0 0
BBX 4 3 1 13
BITMAP
68
95
68
ENDCHAR
STARTCHAR uni0327
ENCODING 807
SWIDTH 0 0
DWIDTH 0 0
BBX 5 5 1 -5
BITMAP
1800
3F40
1080
1180
6E40
ENDCHAR
STARTCHAR Wgrave
ENCODING 7808
SWIDTH 972 0
DWIDTH 27 0
BBX 27 31 0 0
BITMAP
00000660000000
00000264000000
00000188000000
00000099000000
00000023000000
00000025800000
00000000000000
00000000000000
65900199400998
22600266401564
23200223002620
26600226003320
19640665002660
09980998405590
08C8088C809880
0998089880CC80
06591954509980
02662661615640
02322232326200
02622262623200
01565551946600
00998988985900
00CC88C88C8800
00988989988800
00559146651800
00266203262400
00332302232000
00262102661000
00156401994000
00099800C98000
000C880088C000
ENDCHAR
STARTCHAR wgrave
ENCODING 7809
SWIDTH 521 0
DWIDTH 15 0
BBX 15 17 0 0
BITMAP
00090000
00060000
00024000
00000000
00000000
990CC264
65098230
2615C260
23269650
26335990
19A628C0
09D73980
08DA6940
099D9640
05688B00
02748E00
03309900
ENDCHAR
STARTCHAR Wacute
ENCODING 7810
SWIDTH 972 0
DWIDTH 27 0
BBX 27 31 0 0
BITMAP
00000026400000
00000062000000
00000099000000
00000198000000
00000324000000
00000560000000
00000000000000
00000000000000
65900199400998
22600266401564
23200223002620
26600226003320
19640665002660
09980998405590
08C8088C809880
0998089880CC80
06591954509980
02662661615640
02322232326200
02622262623200
01565551946600
00998988985900
00CC88C88C8800
00988989988800
00559146651800
00266203262400
00332302232000
00262102661000
00156401994000
00099800C98000
000C880088C000
ENDCHAR
STARTCHAR wacute
ENCODING 7811
SWIDTH 521 0
DWIDTH 15 0
BBX 15 17 0 0
BITMAP
00024000
00060000
00090000
00000000
00000000
990CC264
65098230
2615C260
23269650
26335990
19A628C0
09D73980
08DA6940
099D9640
05688B00
02748E00
03309900
ENDCHAR
STARTCHAR Wdieresis
ENCODING 7812
SWIDTH 972 0
DWIDTH 27 0
BBX 27 31 0 0
BITMAP
0000B901B80000
00018243460000
00020146020000
00020146020000
00018243460000
0000B901B80000
00000000000000
00000000000000
65900199400998
22600266401564
23200223002620
26600226003320
19640665002660
09980998405590
08C8088C809880
0998089880CC80
06591954509980
02662661615640
02322232326200
02622262623200
01565551946600
00998988985900
00CC88C88C8800
00988989988800
00559146651800
00266203262400
00332302232000
00262102661000
00156401994000
00099800C98000
000C880088C000
ENDCHAR
STARTCHAR wdieresis
ENCODING 7813
SWIDTH 521 0
DWIDTH 15 0
BBX 15 16 0 0
BITMAP
0034A000
0034A000
00000000
00000000
990CC264
65098230
2615C260
23269650
26335990
19A628C0
09D73980
08DA6940
099D9640
05688B00
02748E00
03309900
ENDCHAR
STARTCHAR uni1E9E
ENCODING 7838
SWIDTH 784 0
DWIDTH 22 0
BBX 20 23 1 0
BITMAP
98CFFFFFE0
98CFFFFFE0
98C0000000
98CFFFFFE0
98C0000000
98C0018CC0
98C0026640
98C0066300
98C0089900
98C0159880
98C0332460
98C0956258
98C18CC899
98C0000626
98C0000233
98C0000263
98C0000222
98C0000622
98C1FFF895
98C0000288
98C1FFF924
98C0000190
98C1FFFE40
ENDCHAR
STARTCHAR Ygrave
ENCODING 7922
SWIDTH 769 0
DWIDTH 22 0
BBX 21 31 0 0
BITMAP
00018C000000
000095000000
000023000000
000025800000
00000C900000
000006600000
000000000000
000000000000
6630000298C0
265800063240
088900099600
066300198C00
026580326400
018C90966000
00963188C000
002259264000
0018C9660000
000966090000
000326580000
000188C00000
000000000000
000058800000
000059800000
000059800000
000059800000
000059800000
000059800000
000059800000
000059800000
000059800000
000059800000
ENDCHAR
STARTCHAR ygrave
ENCODING 7923
SWIDTH 422 0
DWIDTH 12 0
BBX 12 17 0 0
BITMAP
002000
002400
000C00
000000
000000
6300C9
268258
0C9630
0A6C90
026980
018F00
004100
005900
005900
005900
005900
005900
ENDCHAR
STARTCHAR endash
ENCODING 8211
SWIDTH 507 0
DWIDTH 14 0
BBX 12 3 1 4
BITMAP
BFFFFE
000000
BFFFFE
ENDCHAR
STARTCHAR emdash
ENCODING 8212
SWIDTH 552 0
DWIDTH 15 0
BBX 13 3 1 4
BITMAP
BFFFFFC0
00000000
BFFFFFC0
ENDCHAR
STARTCHAR quoteleft
ENCODING 8216
SWIDTH 146 0
DWIDTH 4 0
BBX 4 4 0 8
BITMAP
60
60
65
65
ENDCHAR
STARTCHAR quoteright
ENCODING 8217
SWIDTH 146 0
DWIDTH 4 0
BBX 4 4 0 8
BITMAP
65
65
05
05
ENDCHAR
STARTCHAR quotesinglbase
ENCODING 8218
SWIDTH 146 0
DWIDTH 4 0
BBX 4 4 0 -4
BITMAP
65
65
05
05
ENDCHAR
STARTCHAR quotedblleft
ENCODING 8220
SWIDTH 297 0
DWIDTH 8 0
BBX 8 4 0 8
BITMAP
6020
6020
6526
6526
ENDCHAR
STARTCHAR quotedblright
ENCODING 8221
SWIDTH 297 0
DWIDTH 8 0
BBX 8 4 0 8
BITMAP
6526
6526
0506
0506
ENDCHAR
STARTCHAR quotedblbase
ENCODING 8222
SWIDTH 297 0
DWIDTH 8 0
BBX 8 4 0 -4
BITMAP
6526
6526
0506
0506
ENDCHAR
STARTCHAR bullet
ENCODING 8226
SWIDTH 302 0
DWIDTH 8 0
BBX 6 6 1 3
BITMAP
1B80
6060
9030
9030
6060
1B80
ENDCHAR
STARTCHAR ellipsis
ENCODING 8230
SWIDTH 528 0
DWIDTH 15 0
BBX 13 2 1 0
BITMAP
88320980
88320980
ENDCHAR
STARTCHAR guilsinglleft
ENCODING 8249
SWIDTH 178 0
DWIDTH 5 0
BBX 3 6 1 3
BITMAP
04
74
44
44
A0
18
ENDCHAR
STARTCHAR guilsinglright
ENCODING 8250
SWIDTH 178 0
DWIDTH 5 0
BBX 3 6 1 3
BITMAP
40
74
44
44
28
90
ENDCHAR
STARTCHAR fraction
ENCODING 8260
SWIDTH 362 0
DWIDTH 10 0
BBX 10 12 0 0
BITMAP
000950
0008C0
002640
006200
009900
018800
026400
062000
099000
198000
224000
660000
ENDCHAR
STARTCHAR uni2074
ENCODING 8308
SWIDTH 204 0
DWIDTH 6 0
BBX 4 5 1 6
BITMAP
28
54
A9
AA
AA
ENDCHAR
STARTCHAR Euro
ENCODING 8364
SWIDTH 462 0
DWIDTH 13 0
BBX 12 12 0 0
BITMAP
006FE0
029019
092F92
045024
BFF400
000000
BFF400
000000
08A024
061B92
01901D
006FE0
ENDCHAR
STARTCHAR trademark
ENCODING 8482
SWIDTH 461 0
DWIDTH 13 0
BBX 12 5 0 6
BITMAP
BF8916
0C19A2
0C1842
0C1802
0C1802
ENDCHAR
STARTCHAR minus
ENCODING 8722
SWIDTH 420 0
DWIDTH 12 0
BBX 10 3 1 4
BITMAP
BFFFE0
000000
BFFFE0
ENDCHAR
STARTCHAR uni2215
ENCODING 8725
SWIDTH 278 0
DWIDTH 8 0
BBX 7 12 1 0
BITMAP
0154
0264
0320
0660
0990
0C80
1980
2640
3300
6600
9900
CC00
ENDCHAR
STARTCHAR .notdef
ENCODING -1
SWIDTH 500 0
DWIDTH 14 0
BBX 12 32 1 -7
BITMAP
BFFFFE
B5555E
A0000A
A0000A
A0000A
A0000A
A0000A
A0000A
A0000A
A0000A
A0000A
A0000A
A0000A
A0000A
A0000A
A0000A
A0000A
A0000A
A0000A
A0000A
A0000A
A0000A
A0000A
A0000A
A0000A
A0000A
A0000A
A0000A
A0000A
A0000A
BFFFFE
155554
ENDCHAR
STARTCHAR NULL
ENCODING -1
SWIDTH 600 0
DWIDTH 17 0
BBX 1 1 0 0
BITMAP
00
ENDCHAR
STARTCHAR acutecomb.case
ENCODING -1
SWIDTH 0 0
DWIDTH 0 0
BBX 7 6 1 25
BITMAP
0158
0320
0960
18C0
2640
6600
ENDCHAR
STARTCHAR ampersand.case
ENCODING -1
SWIDTH 797 0
DWIDTH 22 0
BBX 20 23 1 0
BITMAP
0006FE4000
002AFAA000
009EFAA400
0167099C00
0226065900
0266065500
0223189900
0321869800
0258957000
0189318000
0A93180000
2871890080
6358930250
8966358631
C8C2589096
9940CA3158
9980625830
C89028C910
992F996340
6290172580
186FA18DA0
064019A624
00AFE4269C
ENDCHAR
STARTCHAR asciicircum.case
ENCODING -1
SWIDTH 540 0
DWIDTH 15 0
BBX 15 12 0 11
BITMAP
00020000
00094000
0008C000
00265000
00632400
00994C00
01989500
03243300
05602580
0C800C90
25800660
63000224
ENDCHAR
STARTCHAR asciitilde.case
ENCODING -1
SWIDTH 640 0
DWIDTH 18 0
BBX 16 7 1 9
BITMAP
1BE90001
A4069019
1BE96BE4
A4069019
1BE96BA4
A4069019
40006BE4
ENDCHAR
STARTCHAR asterisk.case
ENCODING -1
SWIDTH 482 0
DWIDTH 14 0
BBX 11 11 1 12
BITMAP
009800
009800
149814
1A01A0
640018
1900A4
010040
060180
089960
024300
010100
ENDCHAR
STARTCHAR at.case
ENCODING -1
SWIDTH 915 0
DWIDTH 26 0
BBX 24 23 1 0
BITMAP
00016FF94000
001AABEAA400
006B9006AA00
02A800002980
06A000000660
0D801BA88264
2601EBA88098
3602641C8098
6909C0088065
980980088026
981940088026
981980088026
9808C0088066
9909641C8095
66021BA991C8
3241901A2E58
25801BE68070
0CA000006F80
062800000000
028690068000
00746BE91000
001A4005E000
00016FF90000
ENDCHAR
STARTCHAR backslash.case
ENCODING -1
SWIDTH 504 0
DWIDTH 14 0
BBX 14 27 0 -2
BITMAP
99900000
66600000
33300000
26640000
19980000
0CCC0000
09990000
06660000
03320000
02660000
01994000
00CC8000
00998000
00665000
00322000
00262000
00195400
00088800
00088800
00055500
00022200
00022200
00015640
00008980
000088C0
00005990
00002660
ENDCHAR
STARTCHAR bar.case
ENCODING -1
SWIDTH 262 0
DWIDTH 7 0
BBX 5 27 1 -2
BITMAP
98C0
98C0
98C0
98C0
98C0
98C0
98C0
98C0
98C0
98C0
98C0
98C0
98C0
98C0
98C0
98C0
98C0
98C0
98C0
98C0
98C0
98C0
98C0
98C0
98C0
98C0
98C0
ENDCHAR
STARTCHAR braceleft.case
ENCODING -1
SWIDTH 504 0
DWIDTH 14 0
BBX 12 27 1 -2
BITMAP
01956E
019640
01966E
019640
01966E
019640
019640
019640
019640
019640
019640
B99640
019640
B99640
019640
B99640
019640
019640
019640
019640
019640
019640
01966E
019640
01966E
019640
01956E
ENDCHAR
STARTCHAR braceright.case
ENCODING -1
SWIDTH 506 0
DWIDTH 14 0
BBX 12 27 1 -2
BITMAP
789540
009940
789940
009940
789940
009940
009940
009940
009940
009940
009940
00996E
009940
00996E
009940
00996E
009940
009940
009940
009940
009940
009940
789940
009940
789940
009940
789540
ENDCHAR
STARTCHAR bracketleft.case
ENCODING -1
SWIDTH 453 0
DWIDTH 13 0
BBX 11 27 1 -2
BITMAP
988FF4
98C000
98CFF4
98C000
98CFF4
98C000
98C000
98C000
98C000
98C000
98C000
98C000
98C000
98C000
98C000
98C000
98C000
98C000
98C000
98C000
98C000
98C000
98CFF4
98C000
98CFF4
98C000
988FF4
ENDCHAR
STARTCHAR bracketright.case
ENCODING -1
SWIDTH 453 0
DWIDTH 13 0
BBX 11 27 1 -2
BITMAP
BF9964
001964
BF9964
001964
BF9964
001964
001964
001964
001964
001964
001964
001964
001964
001964
001964
001964
001964
001964
001964
001964
001964
001964
BF9964
001964
BF9964
001964
BF9964
ENDCHAR
STARTCHAR brokenbar.case
ENCODING -1
SWIDTH 262 0
DWIDTH 7 0
BBX 5 27 1 0
BITMAP
98C0
98C0
98C0
98C0
98C0
98C0
98C0
98C0
98C0
98C0
98C0
98C0
0000
0000
0000
98C0
98C0
98C0
98C0
98C0
98C0
98C0
98C0
98C0
98C0
98C0
98C0
ENDCHAR
STARTCHAR bullet.case
ENCODING -1
SWIDTH 503 0
DWIDTH 14 0
BBX 12 12 1 6
BITMAP
01BE40
0A41A0
18BE28
2241C8
550065
980026
980026
550065
2241C8
18BE28
0A41A0
01BE40
ENDCHAR
STARTCHAR uni0327.case
ENCODING -1
SWIDTH 0 0
DWIDTH 0 0
BBX 7 7 1 -7
BITMAP
0700
0900
1EE0
2424
0018
5024
2F90
ENDCHAR
STARTCHAR cent.case
ENCODING -1
SWIDTH 577 0
DWIDTH 16 0
BBX 14 27 1 -2
BITMAP
00026000
00026000
00026000
00026000
00000000
001BF900
01E40680
061AE860
08A40740
258AE440
32280900
65900000
59800000
98C00000
59800000
65900000
32280900
258AE440
0C640740
061AE860
01E40680
001BF900
00000000
00026000
00026000
00026000
00026000
ENDCHAR
STARTCHAR uni0302.case
ENCODING -1
SWIDTH 0 0
DWIDTH 0 0
BBX 12 6 1 25
BITMAP
009600
018C80
032460
09A264
298189
630066
ENDCHAR
STARTCHAR colon.case
ENCODING -1
SWIDTH 262 0
DWIDTH 7 0
BBX 5 16 1 0
BITMAP
98C0
98C0
98C0
98C0
98C0
0000
0000
0000
0000
0000
0000
98C0
98C0
98C0
98C0
98C0
ENDCHAR
STARTCHAR comma.case
ENCODING -1
SWIDTH 338 0
DWIDTH 9 0
BBX 7 8 1 -3
BITMAP
088C
0C88
1994
1664
2230
3220
6650
5990
ENDCHAR
STARTCHAR copyright.case
ENCODING -1
SWIDTH 895 0
DWIDTH 25 0
BBX 24 23 1 0
BITMAP
0001AFE90000
001EAFEAD000
00AB5006A800
02A400007B00
09D000001D80
1A401BE40660
3601901A0270
59021BE14194
9C09641800D8
D808C000009C
980980000098
980980000099
9808C0000098
CC09641800CC
89021BE14188
5601D01A0254
32401BE40630
18D000001C60
092400007580
034A50068700
00A06FE42800
001E4006D000
0001AFE90000
ENDCHAR
STARTCHAR currency.case
ENCODING -1
SWIDTH 676 0
DWIDTH 19 0
BBX 17 17 1 2
BITMAP
0100001000
028000A000
1890028900
9610012580
354AE45700
1C34060C00
0096E58000
0199189000
0164059000
0164059000
0199189000
0496E58400
2834060A00
A20AE46280
8950015840
258000D600
0700003400
ENDCHAR
STARTCHAR degree.case
ENCODING -1
SWIDTH 413 0
DWIDTH 12 0
BBX 10 10 1 13
BITMAP
06F900
280640
A2E4C0
C90950
980260
980260
C90950
62E4C0
280740
06F800
ENDCHAR
STARTCHAR uni0308.case
ENCODING -1
SWIDTH 0 0
DWIDTH 0 0
BBX 14 6 1 25
BITMAP
1B802E40
609091C0
9020C090
9020C090
609091C0
1B802E40
ENDCHAR
STARTCHAR divide.case
ENCODING -1
SWIDTH 618 0
DWIDTH 17 0
BBX 15 15 1 4
BITMAP
0002D000
00093000
00093000
0002D000
00000000
BFFFFFF8
00000000
BFFFFFF8
00000000
BFFFFFF8
00000000
0002D000
00093000
00093000
0002D000
ENDCHAR
STARTCHAR uni2215.case
ENCODING -1
SWIDTH 483 0
DWIDTH 14 0
BBX 13 23 0 0
BITMAP
00019940
00026600
00033200
00066600
00099900
000CC800
00199800
00266400
00332000
00666000
00999000
00CCC000
01998000
02664000
03330000
06660000
09990000
0CCC0000
19980000
26640000
33300000
66600000
99900000
ENDCHAR
STARTCHAR dollar.case
ENCODING -1
SWIDTH 660 0
DWIDTH 18 0
BBX 17 27 1 -2
BITMAP
0002600000
0002600000
0062650000
069262E000
1D62652800
2292628900
9A22656300
CCD2626640
9982619400
C8C1600000
8969000000
6286E40000
28791B8000
0646E46400
00691B4900
0006E4A300
00011B6540
0002518980
054260C980
88D2629980
8962653240
6282619600
2862651800
079261A000
0062664000
0002600000
0002600000
ENDCHAR
STARTCHAR eight.case
ENCODING -1
SWIDTH 561 0
DWIDTH 16 0
BBX 14 23 1 0
BITMAP
01BF9000
0AAFAD00
2A806640
692E49C0
9890A650
D9803260
99402320
89803220
C9641660
52469490
24796840
0A469600
61A42980
88468990
89806260
99402320
99803220
C8D0A660
992E8990
62806480
286F9240
0A401D00
01BF9000
ENDCHAR
STARTCHAR ellipsis.case
ENCODING -1
SWIDTH 766 0
DWIDTH 21 0
BBX 19 5 1 0
BITMAP
98C2630598
98C2630598
98C2630598
98C2630598
98C2630598
ENDCHAR
STARTCHAR emdash.case
ENCODING -1
SWIDTH 790 0
DWIDTH 22 0
BBX 20 5 1 9
BITMAP
BFFFFFFFFE
0000000000
BFFFFFFFFE
0000000000
BFFFFFFFFE
ENDCHAR
STARTCHAR endash.case
ENCODING -1
SWIDTH 721 0
DWIDTH 20 0
BBX 18 5 1 9
BITMAP
BFFFFFFFE0
0000000000
BFFFFFFFE0
0000000000
BFFFFFFFE0
ENDCHAR
STARTCHAR equal.case
ENCODING -1
SWIDTH 618 0
DWIDTH 17 0
BBX 15 13 1 5
BITMAP
BFFFFFF8
00000000
BFFFFFF8
00000000
BFFFFFF8
00000000
00000000
00000000
BFFFFFF8
00000000
BFFFFFF8
00000000
BFFFFFF8
ENDCHAR
STARTCHAR Euro.case
ENCODING -1
SWIDTH 767 0
DWIDTH 21 0
BBX 21 23 0 0
BITMAP
00001BFE5000
0002EAFAA900
000AA401A740
003646F91800
009978019400
019980001000
022240000000
000000000000
BFFFFFF00000
000000000000
000000000000
BFFFFFF00000
BFFFFFF00000
000000000000
032200000000
026580000000
018890006000
009629028400
006286F91800
00186401A240
000646FA0900
0001A401A400
00001BFE4000
ENDCHAR
STARTCHAR exclam.case
ENCODING -1
SWIDTH 262 0
DWIDTH 7 0
BBX 5 23 1 0
BITMAP
98C0
98C0
98C0
98C0
98C0
98C0
98C0
98C0
98C0
98C0
98C0
98C0
98C0
98C0
98C0
98C0
4440
0000
98C0
98C0
98C0
98C0
98C0
ENDCHAR
STARTCHAR exclamdown.case
ENCODING -1
SWIDTH 262 0
DWIDTH 7 0
BBX 5 23 1 -6
BITMAP
98C0
98C0
98C0
98C0
98C0
0000
4440
98C0
98C0
98C0
98C0
98C0
98C0
98C0
98C0
98C0
98C0
98C0
98C0
98C0
98C0
98C0
98C0
ENDCHAR
STARTCHAR five.case
ENCODING -1
SWIDTH 558 0
DWIDTH 16 0
BBX 14 23 1 0
BITMAP
7FFFFFC0
7FFFFFC0
00000000
7FFFFFC0
00000000
99800000
99800000
99800000
998F9000
99806800
99800700
998B9180
998EA890
9980A960
00003660
00002220
99403220
C8D0A660
992E4990
62806580
286F9700
0A401D00
01BF9000
ENDCHAR
STARTCHAR four.case
ENCODING -1
SWIDTH 585 0
DWIDTH 16 0
BBX 15 23 1 0
BITMAP
00099900
00188800
00266400
00622000
00999000
01888000
02664000
02220000
09990000
08880000
26640000
22226300
99926300
00026300
FFF66334
00026300
FFF66334
00026300
FFF66334
00026300
00026300
00026300
00026300
ENDCHAR
STARTCHAR uni2074.case
ENCODING -1
SWIDTH 312 0
DWIDTH 9 0
BBX 7 10 1 13
BITMAP
0990
0880
2640
2200
9900
0088
FD88
0088
FD88
0088
ENDCHAR
STARTCHAR fraction.case
ENCODING -1
SWIDTH 655 0
DWIDTH 18 0
BBX 16 23 1 0
BITMAP
00000066
000000C8
00000158
00000330
00000950
000008C0
00002640
00006200
00009900
00019800
00022400
00066000
00088000
00198000
00320000
00960000
008C0000
02640000
02200000
09900000
18800000
26400000
66000000
ENDCHAR
STARTCHAR gravecomb.case
ENCODING -1
SWIDTH 0 0
DWIDTH 0 0
BBX 7 6 1 25
BITMAP
6600
2640
18C0
0960
0330
0258
ENDCHAR
STARTCHAR greater.case
ENCODING -1
SWIDTH 677 0
DWIDTH 19 0
BBX 17 19 1 2
BITMAP
A000000000
1900000000
9290000000
1928000000
9296800000
2968740000
06874A4000
0074A5A000
000A4A1D00
0000A1A140
001D1A1400
01A1818000
1A19280000
A5A1D00000
4A5A000000
74A4000000
4740000000
6800000000
8000000000
ENDCHAR
STARTCHAR guillemotleft.case
ENCODING -1
SWIDTH 666 0
DWIDTH 19 0
BBX 17 15 1 4
BITMAP
0004000000
0028000600
00A0002800
0758019240
1860061D00
428814A140
7464090A00
4A00128400
6190197400
1964028A00
A28818A140
2864075900
064800A240
00A0002800
001C000600
ENDCHAR
STARTCHAR guillemotright.case
ENCODING -1
SWIDTH 666 0
DWIDTH 19 0
BBX 17 15 1 4
BITMAP
4000100000
60001D0000
1900028000
A28018A000
1860075800
5744149140
28280A0A00
05D4016400
0A18019700
24A00A2800
5758159240
2860061D00
528018A000
1D00064000
6000180000
ENDCHAR
STARTCHAR guilsinglleft.case
ENCODING -1
SWIDTH 338 0
DWIDTH 9 0
BBX 7 15 1 4
BITMAP
0004
0028
00A0
0758
1860
4288
7464
4A00
6190
1964
A288
2864
0648
00A0
001C
ENDCHAR
STARTCHAR guilsinglright.case
ENCODING -1
SWIDTH 338 0
DWIDTH 9 0
BBX 7 15 1 4
BITMAP
4000
6000
1900
A280
1860
5744
2828
05D4
0A18
24A0
5758
2860
5280
1D00
6000
ENDCHAR
STARTCHAR hyphen.case
ENCODING -1
SWIDTH 445 0
DWIDTH 12 0
BBX 10 5 1 9
BITMAP
BFFFF0
000000
BFFFF0
000000
BFFFF0
ENDCHAR
STARTCHAR less.case
ENCODING -1
SWIDTH 677 0
DWIDTH 19 0
BBX 17 19 1 2
BITMAP
0000000080
0000000A40
0000007440
0000068740
0000296840
0002D28640
0009292800
0090929000
09291D0000
5296800000
2968640000
0286874000
006874A400
00074A5A00
0000A5A180
00001A1900
0000019280
0000001900
0000000280
ENDCHAR
STARTCHAR logicalnot.case
ENCODING -1
SWIDTH 618 0
DWIDTH 17 0
BBX 15 11 1 3
BITMAP
BFFFFFF8
00000000
BFFFFFF8
00000000
BFFFFFF8
00000000
0000098C
0000098C
0000098C
0000098C
0000098C
ENDCHAR
STARTCHAR uni00B5.case
ENCODING -1
SWIDTH 792 0
DWIDTH 22 0
BBX 21 29 1 -6
BITMAP
98C000659000
98C000659000
98C000659000
98C000659000
98C000659000
98C000659000
98C000659000
98C000659000
98C000659000
98C000659000
98C000659000
98C000659000
98C000659000
98C000659000
98C000659000
98C000999000
98C000C88000
98C806599800
98C6F9724640
98C402D62400
98C6F9184A40
98C401A0A400
98CBFE401B40
98C000000000
98C000000000
98C000000000
98C000000000
98C000000000
988000000000
ENDCHAR
STARTCHAR minus.case
ENCODING -1
SWIDTH 618 0
DWIDTH 17 0
BBX 15 5 1 9
BITMAP
BFFFFFF8
00000000
BFFFFFF8
00000000
BFFFFFF8
ENDCHAR
STARTCHAR multiply.case
ENCODING -1
SWIDTH 580 0
DWIDTH 16 0
BBX 14 14 1 4
BITMAP
01400500
04D01840
0A346240
62858960
28862580
0A189600
00625800
01896100
06258340
189618D0
62584A20
0960A240
05802800
01000800
ENDCHAR
STARTCHAR nine.case
ENCODING -1
SWIDTH 558 0
DWIDTH 16 0
BBX 14 23 1 0
BITMAP
01AF9000
06401D00
186F9240
628064C0
992E4990
C890A660
99803220
99402320
89802320
C9902320
92AF6320
20AF6320
18002320
07402320
00AF6320
00002320
00002320
99403260
C8D0A690
996E49C0
26806A40
0AAFAD00
01BF9000
ENDCHAR
STARTCHAR numbersign.case
ENCODING -1
SWIDTH 776 0
DWIDTH 22 0
BBX 20 23 1 0
BITMAP
0022602320
0026503260
0065902650
0059806650
1D98CFFFFD
008C800000
1CC99FFFFD
0099400000
19966FFFFD
0166400000
0262019640
0000016600
BFFFF66230
0000023200
BFFFF32670
0000022600
BFFFE265B0
0000065900
098C059800
0888098C00
0C9808C800
0994088800
1994089800
ENDCHAR
STARTCHAR one.case
ENCODING -1
SWIDTH 378 0
DWIDTH 11 0
BBX 10 23 0 0
BITMAP
7E5990
7E5990
005990
7E5990
005990
005990
005990
005990
005990
005990
005990
005990
005990
005990
005990
005990
005990
005990
005990
005990
005990
005990
005990
ENDCHAR
STARTCHAR onehalf.case
ENCODING -1
SWIDTH 735 0
DWIDTH 21 0
BBX 18 24 1 -1
BITMAP
B664001980
0264002240
B664006600
0264008900
0264019800
0264032000
0264096000
026408C000
0264264000
0264220000
0110990000
0001880000
0002640000
0006602F80
0008909060
0019819E20
0032015660
0056000730
00CC001CA0
0254007280
0230004100
099001FFF0
1880000000
000001FFF0
ENDCHAR
STARTCHAR onequarter.case
ENCODING -1
SWIDTH 722 0
DWIDTH 20 0
BBX 18 23 1 0
BITMAP
B664001980
0264002240
B664006600
0264008900
0264019800
0264032000
0264096000
026408C000
0264264000
0264220000
0110990000
0001880000
0002640000
0006602640
0008906200
0019809900
0032019800
0056026400
00CC000320
025407F320
0230000320
099007F320
1880000320
ENDCHAR
STARTCHAR uni00B9.case
ENCODING -1
SWIDTH 306 0
DWIDTH 9 0
BBX 7 11 1 12
BITMAP
B664
0264
B664
0264
0264
0264
0264
0264
0264
0264
0110
ENDCHAR
STARTCHAR ordfeminine.case
ENCODING -1
SWIDTH 456 0
DWIDTH 13 0
BBX 10 11 1 12
BITMAP
009C00
026900
022600
067600
099940
0C8880
19FD80
260650
33FE20
650260
540150
ENDCHAR
STARTCHAR ordmasculine.case
ENCODING -1
SWIDTH 489 0
DWIDTH 14 0
BBX 12 11 1 12
BITMAP
01BE40
0A01A0
24BA24
62418C
590099
980059
590098
624188
24BA24
0A01A0
01BE40
ENDCHAR
STARTCHAR paragraph.case
ENCODING -1
SWIDTH 893 0
DWIDTH 25 0
BBX 24 23 0 0
BITMAP
006FFFFFFFFE
02AFFFFFFFFE
09D000000000
265BFFFFFFFE
366000000000
659000262026
659000262026
666000262026
321BFF662026
25D000262026
092FFF662026
029000262026
006FFF662026
000000262026
000000262026
000000262026
000000262026
000000262026
000000262026
000000262026
000000262026
000000262026
000000262026
ENDCHAR
STARTCHAR parenleft.case
ENCODING -1
SWIDTH 290 0
DWIDTH 8 0
BBX 8 27 1 -2
BITMAP
0366
0598
0C98
1964
2630
3260
6590
5980
98C0
8C80
C980
9980
9940
9940
9940
9980
C980
8C80
98C0
5980
6590
3260
2630
1964
0C98
0598
0366
ENDCHAR
STARTCHAR parenright.case
ENCODING -1
SWIDTH 290 0
DWIDTH 8 0
BBX 9 27 -1 -2
BITMAP
599000
366000
267000
099400
08C800
099800
065900
032600
023200
026300
016600
016600
019640
019640
019640
016600
016600
026300
023200
032600
065900
099800
08C800
099400
266000
366000
599000
ENDCHAR
STARTCHAR percent.case
ENCODING -1
SWIDTH 827 0
DWIDTH 23 0
BBX 22 23 1 0
BITMAP
06F900018C80
2AEA40022640
990990066600
D802600C8900
980260265800
C90960623000
92E490C99000
280642598000
06F906370000
000009990000
000019980000
000632400000
000C96000000
00258C0AE400
006224740A00
00866096E180
0188C1981880
032642640990
096202640990
18C901981880
265800C6E180
663000740600
C990000BF800
ENDCHAR
STARTCHAR period.case
ENCODING -1
SWIDTH 262 0
DWIDTH 7 0
BBX 5 5 1 0
BITMAP
98C0
98C0
98C0
98C0
98C0
ENDCHAR
STARTCHAR periodcentered.case
ENCODING -1
SWIDTH 262 0
DWIDTH 7 0
BBX 5 5 1 9
BITMAP
98C0
98C0
98C0
98C0
98C0
ENDCHAR
STARTCHAR plus.case
ENCODING -1
SWIDTH 616 0
DWIDTH 17 0
BBX 15 15 1 4
BITMAP
00263000
00263000
00263000
00263000
00263000
BF6633F8
00263000
BF6633F8
00263000
BF6633F8
00263000
00263000
00263000
00263000
00262000
ENDCHAR
STARTCHAR plusminus.case
ENCODING -1
SWIDTH 618 0
DWIDTH 17 0
BBX 15 21 1 0
BITMAP
00263000
00263000
00263000
00263000
00263000
BF6633F8
00263000
BF6633F8
00263000
BF6633F8
00263000
00263000
00263000
00263000
00262000
00000000
BFFFFFF8
00000000
BFFFFFF8
00000000
BFFFFFF8
ENDCHAR
STARTCHAR question.case
ENCODING -1
SWIDTH 598 0
DWIDTH 17 0
BBX 15 23 1 0
BITMAP
006FE400
07ABAA00
19901980
271B96A0
65607270
59801564
44401964
00002664
00006320
00028960
00097480
0018C640
00265800
00333000
00326000
00326000
00111000
00000000
00326000
00326000
00326000
00326000
00326000
ENDCHAR
STARTCHAR questiondown.case
ENCODING -1
SWIDTH 598 0
DWIDTH 17 0
BBX 15 23 1 -6
BITMAP
00326000
00326000
00326000
00326000
00326000
00000000
00111000
00232000
00222000
00626000
01895000
0618C000
18624000
21890000
66240000
99900000
98800450
59801964
65606260
271B9660
0D9019C0
07AFAA00
006FE400
ENDCHAR
STARTCHAR quotedbl.case
ENCODING -1
SWIDTH 464 0
DWIDTH 13 0
BBX 13 8 0 15
BITMAP
65919640
65919640
65919640
65919640
65919640
65919640
65919640
65919640
ENDCHAR
STARTCHAR quotedblbase.case
ENCODING -1
SWIDTH 464 0
DWIDTH 13 0
BBX 13 8 0 -3
BITMAP
65919640
65919640
65919640
65919640
65919640
05901640
05901640
05901640
ENDCHAR
STARTCHAR quotedblleft.case
ENCODING -1
SWIDTH 464 0
DWIDTH 13 0
BBX 13 8 0 15
BITMAP
65019400
65019400
65019400
65919640
65919640
65919640
65919640
65919640
ENDCHAR
STARTCHAR quotedblright.case
ENCODING -1
SWIDTH 464 0
DWIDTH 13 0
BBX 13 8 0 15
BITMAP
65919640
65919640
65919640
65919640
65919640
05901640
05901640
05901640
ENDCHAR
STARTCHAR quoteleft.case
ENCODING -1
SWIDTH 212 0
DWIDTH 6 0
BBX 6 8 0 15
BITMAP
6500
6500
6500
6590
6590
6590
6590
6590
ENDCHAR
STARTCHAR quoteright.case
ENCODING -1
SWIDTH 212 0
DWIDTH 6 0
BBX 6 8 0 15
BITMAP
6590
6590
6590
6590
6590
0590
0590
0590
ENDCHAR
STARTCHAR quotesinglbase.case
ENCODING -1
SWIDTH 212 0
DWIDTH 6 0
BBX 6 8 0 -3
BITMAP
6590
6590
6590
6590
6590
0590
0590
0590
ENDCHAR
STARTCHAR quotesingle.case
ENCODING -1
SWIDTH 212 0
DWIDTH 6 0
BBX 6 8 0 15
BITMAP
6590
6590
6590
6590
6590
6590
6590
6590
ENDCHAR
STARTCHAR registered.case
ENCODING -1
SWIDTH 895 0
DWIDTH 25 0
BBX 24 23 1 0
BITMAP
0001AFE90000
001EAFEAD000
00AB5006A800
02A400007B00
09D000001D80
1A423FF90660
360330060270
59033FF58194
9C03300880D8
D8033FF5809C
980330060098
98033FF80099
980330C80098
CC03309900CC
890330660188
560330220254
324110154630
18D000001C60
092400007580
034A50068700
00A06FE42800
001E4006D000
0001AFE90000
ENDCHAR
STARTCHAR uni030A.case
ENCODING -1
SWIDTH 0 0
DWIDTH 0 0
BBX 6 6 1 25
BITMAP
1B80
7060
9020
9020
6060
1B80
ENDCHAR
STARTCHAR section.case
ENCODING -1
SWIDTH 645 0
DWIDTH 18 0
BBX 16 30 1 -4
BITMAP
001BF900
01900190
0A000028
081BFA49
24EBF9A2
22640755
23340000
261A5000
19816E00
0A7901D0
01D6A424
042E5658
184168C9
22490655
66600265
65900959
65606488
23290224
2586A810
0D790680
0786B860
00794758
0005B4D8
00000A55
05900665
CD6FF899
6690068C
286BE924
075006D0
006FF900
ENDCHAR
STARTCHAR semicolon.case
ENCODING -1
SWIDTH 338 0
DWIDTH 9 0
BBX 7 19 1 -3
BITMAP
0998
0998
0998
0998
0998
0000
0000
0000
0000
0000
0000
088C
0C88
1994
1664
2230
3220
6650
5990
ENDCHAR
STARTCHAR seven.case
ENCODING -1
SWIDTH 505 0
DWIDTH 14 0
BBX 12 23 1 0
BITMAP
FFFFFF
FFFFFF
000000
FFFFFF
000000
000226
000659
000998
000CC8
000998
001564
002620
003220
006650
005990
0088C0
00C980
019940
026600
023300
022600
065900
099800
ENDCHAR
STARTCHAR six.case
ENCODING -1
SWIDTH 558 0
DWIDTH 16 0
BBX 14 23 1 0
BITMAP
01BFA000
0AAFAA00
2A806A80
692E8980
9890A660
D9802220
99400000
99400000
996F9000
99406800
99400700
995F9180
995EA890
9940A960
99403660
99402220
99803220
C890A660
992E4990
62806580
286F9700
0A401D00
01BF9000
ENDCHAR
STARTCHAR slash.case
ENCODING -1
SWIDTH 504 0
DWIDTH 14 0
BBX 14 27 0 -2
BITMAP
00002660
00005990
000088C0
00008980
00015640
00022200
00022200
00055500
00088800
00088800
00195400
00262000
00322000
00665000
00998000
00CC8000
01994000
02660000
03320000
06660000
09990000
0CCC0000
19980000
26640000
33300000
66600000
99900000
ENDCHAR
STARTCHAR uni00AD.case
ENCODING -1
SWIDTH 445 0
DWIDTH 12 0
BBX 10 5 1 9
BITMAP
BFFFF0
000000
BFFFF0
000000
BFFFF0
ENDCHAR
STARTCHAR sterling.case
ENCODING -1
SWIDTH 618 0
DWIDTH 17 0
BBX 17 23 0 0
BITMAP
001BFA4000
01EAFAA000
06A4069D00
0986E86600
2628066640
2320019400
2620000000
1998000000
0000000000
7FFFFF4000
0000000000
7FFFFF4000
0000000000
7FFFFF4000
0000000000
0965000000
2998000000
0000000000
BFFFFFFF40
0000000000
BFFFFFFF40
0000000000
BFFFFFFF40
ENDCHAR
STARTCHAR three.case
ENCODING -1
SWIDTH 558 0
DWIDTH 16 0
BBX 14 23 1 0
BITMAP
01BFA000
0AAFA900
26806A40
996E8980
C8D0A260
99403320
00002220
00001660
00039090
00006840
00000700
00039180
0002A890
0000A960
00003660
45402220
99803220
CC90A660
9A2E4990
62806580
186F9700
06401D00
01BF9000
ENDCHAR
STARTCHAR threequarters.case
ENCODING -1
SWIDTH 722 0
DWIDTH 20 0
BBX 18 23 1 0
BITMAP
1BD0001980
2024002240
5688006600
0448008900
0190019800
0024032000
0188096000
44C808C000
5788264000
3424220000
0B90990000
0001880000
0002640000
0006602640
0008906200
0019809900
0032019800
0056026400
00CC000320
025407F320
0230000320
099007F320
1880000320
ENDCHAR
STARTCHAR uni00B3.case
ENCODING -1
SWIDTH 332 0
DWIDTH 9 0
BBX 7 11 1 12
BITMAP
1BD0
2024
5688
0448
0190
0024
0188
44C8
5788
3424
0B90
ENDCHAR
STARTCHAR tildecomb.case
ENCODING -1
SWIDTH 0 0
DWIDTH 0 0
BBX 11 4 1 25
BITMAP
1B8008
34600C
501824
5007E0
ENDCHAR
STARTCHAR trademark.case
ENCODING -1
SWIDTH 850 0
DWIDTH 24 0
BBX 23 12 0 11
BITMAP
BFFFD2700198
000002780798
BFFFD2690998
016402636598
01640279E398
016402696998
016402632898
016402618098
016402604098
016402600098
016402600098
016402600098
ENDCHAR
STARTCHAR two.case
ENCODING -1
SWIDTH 558 0
DWIDTH 16 0
BBX 14 23 1 0
BITMAP
01BF9000
0AAFAD00
26806A40
692E49C0
8C90A690
99803260
45402320
00003220
00009560
00028C90
00063580
00189300
00724D00
00CA2400
03589000
09624000
25890000
00000000
7FFFFFC0
00000000
7FFFFFC0
00000000
7FFFFFC0
ENDCHAR
STARTCHAR uni00B2.case
ENCODING -1
SWIDTH 339 0
DWIDTH 9 0
BBX 7 11 1 12
BITMAP
0BD0
2428
678C
5598
018C
0624
18A0
1040
BFF8
0000
BFF8
ENDCHAR
STARTCHAR underscore.case
ENCODING -1
SWIDTH 667 0
DWIDTH 19 0
BBX 17 5 1 0
BITMAP
BFFFFFFF40
0000000000
BFFFFFFF40
0000000000
BFFFFFFF40
ENDCHAR
STARTCHAR yen.case
ENCODING -1
SWIDTH 769 0
DWIDTH 22 0
BBX 21 23 0 0
BITMAP
663000029880
265800063240
089900099600
066300198C00
026580322400
008890996000
00663198C000
002659264000
0018C9660000
0009630C0000
000225940000
000188900000
000000000000
000059800000
00BD598BD000
000059800000
00BD598BD000
000059800000
00BD598BD000
000059800000
000059800000
000059800000
000059800000
ENDCHAR
STARTCHAR zero.case
ENCODING -1
SWIDTH 558 0
DWIDTH 16 0
BBX 14 23 1 0
BITMAP
01BF9000
0AAFAD00
2A806A40
692E49C0
9890A690
D9803260
99402320
99402320
99402320
99402320
99402320
99402320
99402320
99402320
99402320
99402320
99803220
C890A660
992E4990
628064C0
286F9240
0A401D00
01BF9000
ENDCHAR
ENDFONT
